<svg version="1.2" xmlns="http://www.w3.org/2000/svg" viewBox="0 0 392 370" width="392" height="370"><defs><clipPath clipPathUnits="userSpaceOnUse" id="cp1"><path d="m-764-2626h1920v4344h-1920z"/></clipPath><linearGradient id="P" gradientUnits="userSpaceOnUse"/><linearGradient id="g1" x1="17.6" y1="112.9" x2="186.4" y2="368.9" href="#P"><stop stop-color="#93d8d8"/><stop offset="1" stop-color="#3ca6a6"/></linearGradient></defs><style>.a{fill:url(#g1)}.b{fill:#fff}</style><g clip-path="url(#cp1)"><path class="a" d="m170.9 12.6c11.9-6 23.8-9.8 35.7-11.1q4.5-0.5 8.9-0.5 4.5 0 8.9 0.4 8.9 1 17.8 3.9c23.4 7.5 46.7 25.8 66.5 47 19.9 21.2 36.3 45.3 47 66.4 10.8 21.6 16.2 40.4 16 62.7-0.5 41.4-24.8 93.8-58.9 131.6-17.2 19-37 34.6-58.8 44.5-10.9 4.9-22.3 8.4-34 10.2q-8.8 1.3-17.8 1.2-2.2-0.1-4.5-0.2-2.3-0.1-4.5-0.3-4.6-0.5-9.2-1.3c-49-5.7-91.6-59.9-126-106.4-34.2-48-55.2-87.2-56.8-113.9q-0.1-1.3-0.2-2.7 0-0.6 0-1.3 0-0.6 0-1.3 0-2.6 0.3-5 0.5-4.9 1.8-9.3c1.7-5.9 4.6-11.3 8.4-16.4 7.7-10.1 19.6-18.9 35.7-27.2 15.8-8.8 35.3-18.6 56.3-31.3 21-12.4 43.7-28.1 67.4-39.7z"/><path class="b" d="m199 16.5c12.9-5.1 25.5-8.4 37.8-9.7q4.7-0.5 9.2-0.6 1.1 0 2.3 0 1.1 0 2.2 0 2.3 0.1 4.5 0.2 8.9 0.7 17.6 3c22.9 5.9 44.4 21.5 62.5 40.6 18.1 19.2 32.7 41.6 42.2 61.7 4.8 10.2 8.4 19.9 10.8 29.7 1.2 5 2.1 9.9 2.7 15q0.4 3.8 0.7 7.7 0.1 2 0.1 3.9 0 1 0.1 2 0 0.5 0 1 0 0.5 0 1.1c-0.3 40.3-21.2 91.1-53.3 128.1-16.2 18.8-35.4 34-57 43.7-10.7 4.9-22.1 8.3-33.8 10.1q-8.8 1.3-17.8 1.3-4.5 0-9-0.4-4.5-0.3-9.1-1.1c-48.5-4.6-89.7-53.5-125.4-98-35.4-45.8-55.1-83.4-56.4-109.9q-0.1-1.4-0.2-2.7 0-0.6 0-1.3 0-0.6 0-1.3 0-2.6 0.2-5.1 0.4-4.9 1.5-9.4c1.4-6.1 3.9-11.7 7.2-16.9 6.8-10.5 17.4-19.6 32.7-27.9 15.1-8.9 34.3-18.3 56-29.9 21.7-11.3 46.1-24.9 71.7-34.9z"/></g></svg>