<?xml version="1.0" encoding="UTF-8"?>
<svg id="a" data-name="Layer 1" xmlns="http://www.w3.org/2000/svg" width="5.335in" height="2.194in" xmlns:xlink="http://www.w3.org/1999/xlink" viewBox="0 0 384.092 157.962">
  <defs>
    <clipPath id="b">
      <rect width="384.092" height="157.962" fill="none"/>
    </clipPath>
  </defs>
  <g clip-path="url(#b)">
    <polygon points="151.054 2.288 146.162 2.288 146.162 9.794 141.942 9.794 141.942 14.088 146.162 14.088 146.162 27.83 151.054 27.83 151.054 14.088 155.274 14.088 155.274 9.794 151.054 9.794 151.054 2.288" fill="#002e40"/>
    <path d="m171.704,10.298c-1.046-.585-2.253-.877-3.622-.877s-2.59.298-3.66.896c-.564.315-1.061.695-1.494,1.138V.832h-4.892v26.999h4.892v-10.344c0-.697.156-1.326.467-1.886s.741-.99,1.289-1.289c.547-.298,1.169-.448,1.867-.448,1.045,0,1.904.336,2.576,1.008.672.673,1.009,1.544,1.009,2.615v10.344h4.929v-11.465c0-1.369-.299-2.576-.896-3.622-.598-1.046-1.419-1.861-2.465-2.446" fill="#002e40"/>
    <path d="m184.775,14.125c.721-.423,1.568-.634,2.539-.634.921,0,1.693.186,2.315.56.622.373,1.108.921,1.457,1.643.167.347.295.737.388,1.164l-8.704.025c.09-.333.198-.653.343-.946.385-.785.939-1.388,1.662-1.812m10.269-.373c-.747-1.369-1.793-2.439-3.137-3.211-1.344-.772-2.863-1.158-4.556-1.158-1.792,0-3.411.411-4.854,1.232-1.444.822-2.583,1.942-3.417,3.361-.834,1.419-1.251,3.025-1.251,4.817,0,1.818.423,3.436,1.27,4.855.846,1.419,2.01,2.539,3.491,3.361,1.481.821,3.168,1.232,5.06,1.232,1.469,0,2.825-.261,4.07-.784,1.245-.523,2.328-1.307,3.249-2.353l-2.912-2.912c-.548.647-1.195,1.12-1.942,1.419-.747.298-1.582.448-2.502.448-1.022,0-1.918-.211-2.689-.635-.772-.423-1.363-1.039-1.774-1.849-.162-.319-.283-.667-.381-1.031l13.171-.033c.099-.398.162-.765.187-1.101.024-.337.037-.666.037-.99,0-1.742-.373-3.298-1.12-4.668" fill="#002e40"/>
    <g>
      <path d="m142.686,66.611c-2.088-1.252-4.536-1.878-7.343-1.878-2.733,0-5.162.626-7.287,1.878-2.125,1.253-3.777,2.98-4.952,5.18-1.178,2.203-1.765,4.745-1.765,7.628s.587,5.428,1.765,7.628c1.175,2.203,2.827,3.948,4.952,5.238,2.125,1.291,4.554,1.935,7.287,1.935,2.807,0,5.294-.644,7.457-1.935,2.164-1.29,3.832-3.035,5.009-5.238,1.177-2.2,1.765-4.742,1.765-7.628s-.626-5.425-1.878-7.628c-1.253-2.2-2.923-3.927-5.01-5.18Z" fill="#002e40"/>
      <path d="m135.343,108.224c-5.542,0-10.531-1.27-14.972-3.814-2.131-1.22-4.043-2.656-5.746-4.296-.12.239-.226.492-.35.727-3.415,6.452-8.122,11.291-14.117,14.516-5.997,3.227-12.865,4.839-20.607,4.839-5.618,0-10.912-1.064-15.882-3.188-4.973-2.124-9.336-5.084-13.093-8.88-3.758-3.795-6.7-8.198-8.824-13.207-2.126-5.01-3.188-10.398-3.188-16.167s1.082-11.138,3.245-16.11c2.163-4.97,5.141-9.336,8.937-13.093,3.795-3.757,8.235-6.66,13.321-8.71,5.084-2.049,10.588-3.074,16.508-3.074,6.604,0,12.656,1.215,18.16,3.644,5.397,2.383,9.936,5.751,13.619,10.105.121.143.111.358-.021.49l-10.064,10.063c-.153.154-.404.133-.534-.04-2.391-3.177-5.383-5.609-8.978-7.298-3.719-1.745-7.818-2.618-12.296-2.618-5.085,0-9.583,1.12-13.491,3.359-3.91,2.239-6.964,5.37-9.165,9.392-2.202,4.024-3.302,8.653-3.302,13.89,0,5.39,1.1,10.096,3.302,14.117,2.201,4.024,5.18,7.155,8.938,9.393,3.756,2.24,7.987,3.359,12.694,3.359,5.084,0,9.41-.911,12.979-2.733,3.567-1.821,6.299-4.534,8.197-8.14.927-1.761,1.622-3.723,2.096-5.876.049-.222-.122-.436-.35-.438l-23.479-.229c-.196-.002-.354-.161-.354-.357v-12.951c0-.198.16-.358.358-.358h27.459c.547-3.514,1.702-6.769,3.497-9.75,2.579-4.288,6.091-7.703,10.531-10.247,4.441-2.542,9.43-3.814,14.972-3.814,5.616,0,10.645,1.252,15.085,3.757,1.662.938,3.197,2.004,4.604,3.197C145.733,24.413,115.218,0,78.981,0,35.361,0,0,35.361,0,78.981s35.361,78.981,78.981,78.981c35.789,0,66.001-23.811,75.702-56.451-1.294,1.069-2.687,2.041-4.197,2.899-4.479,2.544-9.526,3.814-15.142,3.814Z" fill="#002e40"/>
    </g>
    <path d="m158.839,38.121v79.322c0,.198.16.358.358.358h14.768c.197,0,.357-.16.357-.358v-32.074c0-.197.161-.357.358-.357h35.489c.198,0,.358-.16.358-.358v-12.947c0-.198-.16-.358-.358-.358h-35.489c-.197,0-.358-.16-.358-.357v-19.209c0-.197.161-.357.358-.357h37.425c.198,0,.358-.161.358-.358v-12.947c0-.198-.16-.358-.358-.358h-52.908c-.198,0-.358.16-.358.358" fill="#002e40"/>
    <path d="m259.425,87.047c-1.178,2.203-2.846,3.948-5.009,5.238-2.164,1.291-4.65,1.935-7.457,1.935-2.733,0-5.162-.644-7.287-1.935-2.125-1.29-3.776-3.035-4.953-5.238-1.177-2.2-1.764-4.742-1.764-7.628s.587-5.425,1.764-7.628c1.177-2.2,2.828-3.927,4.953-5.18,2.125-1.252,4.554-1.878,7.287-1.878,2.807,0,5.254.626,7.343,1.878,2.087,1.253,3.757,2.98,5.009,5.18,1.253,2.203,1.879,4.745,1.879,7.628s-.589,5.428-1.765,7.628m2.619-32.561c-4.44-2.505-9.47-3.757-15.085-3.757-5.542,0-10.532,1.272-14.972,3.814-4.44,2.544-7.952,5.959-10.531,10.247-2.581,4.288-3.871,9.127-3.871,14.516,0,5.464,1.29,10.38,3.871,14.743,2.579,4.366,6.091,7.819,10.531,10.361,4.44,2.544,9.43,3.814,14.972,3.814,5.615,0,10.663-1.27,15.142-3.814,4.477-2.542,8.006-6.015,10.588-10.418,2.579-4.401,3.871-9.296,3.871-14.686s-1.309-10.247-3.928-14.573c-2.618-4.327-6.148-7.742-10.588-10.247" fill="#002e40"/>
    <path d="m282.07,106.972h14.199c.198,0,.358-.16.358-.358V25.015c0-.197-.16-.357-.358-.357h-14.199c-.198,0-.358.16-.358.357v81.599c0,.198.16.358.358.358" fill="#002e40"/>
    <path d="m312.337,25.305c-2.43,0-4.441.836-6.034,2.505-1.594,1.67-2.391,3.682-2.391,6.034,0,2.43.797,4.46,2.391,6.091,1.593,1.633,3.604,2.448,6.034,2.448,2.504,0,4.534-.815,6.091-2.448,1.555-1.631,2.333-3.661,2.333-6.091,0-2.352-.778-4.364-2.333-6.034-1.557-1.669-3.587-2.505-6.091-2.505" fill="#002e40"/>
    <path d="m305.066,106.972h14.427c.197,0,.357-.16.357-.358v-54.275c0-.197-.16-.357-.357-.357h-14.427c-.198,0-.358.16-.358.357v54.275c0,.198.16.358.358.358" fill="#002e40"/>
    <path d="m366.957,87.048c-1.178,2.202-2.846,3.947-5.009,5.237-2.164,1.291-4.651,1.935-7.457,1.935-2.733,0-5.163-.644-7.287-1.935-2.126-1.29-3.776-3.035-4.953-5.237-1.177-2.201-1.764-4.743-1.764-7.628s.587-5.426,1.764-7.628c1.177-2.201,2.827-3.928,4.953-5.181,2.124-1.252,4.554-1.878,7.287-1.878,2.806,0,5.254.626,7.343,1.878,2.087,1.253,3.757,2.98,5.009,5.181,1.253,2.202,1.879,4.744,1.879,7.628s-.589,5.427-1.765,7.628m13.207-22.315c-2.618-4.326-6.148-7.742-10.588-10.247-4.44-2.504-9.47-3.757-15.085-3.757-5.542,0-10.532,1.272-14.972,3.814-4.44,2.544-7.952,5.96-10.531,10.247-2.581,4.289-3.871,9.128-3.871,14.516,0,5.465,1.29,10.38,3.871,14.744,2.579,4.365,6.091,7.818,10.531,10.36,4.44,2.544,9.43,3.814,14.972,3.814,5.615,0,10.663-1.27,15.142-3.814,4.477-2.542,8.006-6.014,10.588-10.417,2.579-4.401,3.871-9.297,3.871-14.687s-1.309-10.247-3.928-14.573" fill="#002e40"/>
  </g>
</svg>