<svg version="1.2" xmlns="http://www.w3.org/2000/svg" viewBox="0 0 44 44" width="44" height="44"><defs><clipPath clipPathUnits="userSpaceOnUse" id="cp1"><path d="m-1504-4204h1920v4344h-1920z"/></clipPath></defs><style>.a{fill:#fff}</style><g clip-path="url(#cp1)"><path class="a" d="m43.1 13.1c-0.1-2.2-0.4-3.7-0.9-5-0.5-1.3-1.2-2.5-2.4-3.6-1.1-1.2-2.3-1.9-3.7-2.4-1.3-0.5-2.8-0.9-5-1-2.2-0.1-2.9-0.1-8.5-0.1-5.6 0-6.3 0-8.5 0.1-2.2 0.1-3.7 0.5-5 1-1.3 0.5-2.5 1.2-3.6 2.4-1.2 1.1-1.9 2.3-2.4 3.6-0.5 1.3-0.9 2.8-1 5-0.1 2.2-0.1 2.9-0.1 8.5 0 5.6 0 6.3 0.1 8.5 0.1 2.2 0.5 3.7 1 5.1 0.5 1.3 1.2 2.5 2.4 3.6 1.1 1.2 2.3 1.9 3.6 2.4 1.3 0.5 2.8 0.8 5 0.9 2.2 0.1 2.9 0.2 8.5 0.2q0.5 0 0.9 0v-16h-5.4v-6.2h5.4v-4.6c0-5.4 3.2-8.3 8-8.3 2.3 0 4.2 0.2 4.8 0.3v5.5h-3.3c-2.6 0-3.1 1.3-3.1 3.1v4h6.2l-0.8 6.2h-5.4v15.9q0.6 0 1.2-0.1c2.2-0.1 3.7-0.4 5-0.9 1.4-0.5 2.6-1.2 3.7-2.4 1.2-1.1 1.9-2.3 2.4-3.6 0.5-1.4 0.8-2.9 0.9-5.1 0.1-2.2 0.2-2.9 0.2-8.5 0-5.6-0.1-6.3-0.2-8.5z"/></g></svg>