<?xml version="1.0" encoding="UTF-8"?><svg id="a" xmlns="http://www.w3.org/2000/svg" viewBox="0 0 128 128"><path d="m118.257,49.982l-10.239-2.407c-.611-.144-1.112-.587-1.388-1.253-.262-.631-.222-1.299.109-1.834l5.537-8.941c1.335-2.155,1.016-4.912-.776-6.704l-12.344-12.343c-1.792-1.793-4.547-2.112-6.703-.777l-8.941,5.538c-.535.332-1.202.371-1.871.094-.629-.26-1.072-.76-1.217-1.374l-2.406-10.238c-.58-2.467-2.756-4.19-5.29-4.19h-17.455c-2.534,0-4.71,1.723-5.29,4.19l-2.407,10.238c-.144.613-.587,1.113-1.253,1.388-.634.262-1.301.222-1.834-.109l-8.941-5.538c-2.155-1.335-4.91-1.015-6.703.777l-12.344,12.343c-1.792,1.792-2.111,4.549-.776,6.704l5.537,8.941c.331.535.371,1.204.094,1.872-.26.629-.761,1.073-1.373,1.216l-10.238,2.407c-2.467.58-4.19,2.755-4.19,5.29v17.456c0,2.535,1.724,4.71,4.19,5.29l10.238,2.406c.612.144,1.113.587,1.389,1.254.262.631.222,1.3-.109,1.835l-5.537,8.94c-1.335,2.155-1.016,4.912.776,6.704l12.344,12.343c1.792,1.792,4.546,2.113,6.703.777l8.941-5.538c.535-.331,1.202-.37,1.871-.094.629.26,1.072.76,1.217,1.374l2.406,10.238c.58,2.467,2.756,4.19,5.29,4.19h17.455c2.534,0,4.71-1.723,5.29-4.19l2.407-10.238c.144-.613.587-1.113,1.253-1.388.634-.263,1.3-.222,1.834.109l8.941,5.538c2.155,1.335,4.91,1.015,6.703-.777l12.344-12.343c1.792-1.792,2.111-4.549.776-6.704l-5.536-8.94c-.332-.535-.372-1.204-.095-1.872.26-.629.761-1.073,1.373-1.217l10.238-2.406c2.467-.58,4.19-2.755,4.19-5.29v-17.456c0-2.535-1.724-4.709-4.19-5.29Zm.69,22.745c0,.902-.613,1.676-1.491,1.883l-10.238,2.406c-1.697.399-3.121,1.627-3.822,3.321-.686,1.659-.549,3.535.369,5.018l5.537,8.94c.475.767.361,1.748-.276,2.386l-12.344,12.343c-.64.639-1.619.751-2.385.276l-8.941-5.537c-1.48-.918-3.355-1.057-5.053-.354-1.658.686-2.887,2.109-3.285,3.807l-2.406,10.237c-.207.878-.981,1.492-1.884,1.492h-17.455c-.902,0-1.677-.613-1.884-1.491l-2.405-10.237c-.399-1.698-1.628-3.122-3.321-3.822-1.655-.686-3.53-.553-5.018.367l-8.941,5.538c-.768.476-1.747.36-2.385-.276l-12.344-12.343c-.638-.638-.751-1.619-.276-2.386l5.538-8.94c.917-1.483,1.055-3.358.353-5.053-.686-1.659-2.109-2.887-3.807-3.286l-10.238-2.406c-.878-.207-1.491-.98-1.491-1.883v-17.456c0-.902.613-1.676,1.491-1.882l10.237-2.407c1.698-.398,3.121-1.627,3.823-3.321.687-1.66.55-3.535-.369-5.017l-5.537-8.941c-.475-.767-.361-1.748.276-2.386l12.344-12.343c.639-.638,1.619-.752,2.385-.276l8.941,5.537c1.481.918,3.356,1.057,5.053.354,1.658-.686,2.887-2.109,3.285-3.807l2.406-10.237c.207-.878.981-1.492,1.884-1.492h17.455c.902,0,1.677.613,1.884,1.491l2.405,10.237c.399,1.698,1.628,3.122,3.321,3.822,1.657.686,3.535.55,5.018-.367l8.941-5.538c.768-.477,1.746-.361,2.385.276l12.344,12.343c.638.638.751,1.619.276,2.386l-5.537,8.941c-.919,1.482-1.056,3.357-.353,5.052.687,1.659,2.109,2.887,3.807,3.286l10.238,2.407c.878.207,1.491.98,1.491,1.882v17.456Z" fill="#fff"/><path d="m63.973,26.55c-20.644,0-37.348,16.801-37.348,37.348s16.658,37.348,37.348,37.348c20.533,0,37.348-16.704,37.348-37.348,0-20.491-16.658-37.348-37.348-37.348Zm30.403,39.098h3.399c-.41,8.017-3.624,15.304-8.676,20.902l-2.391-2.391c-.684-.684-1.791-.684-2.475,0-.684.683-.684,1.791,0,2.475l2.391,2.391c-5.598,5.052-12.885,8.266-20.902,8.676v-3.4c0-.966-.783-1.75-1.75-1.75s-1.75.784-1.75,1.75v3.4c-8.017-.41-15.303-3.624-20.902-8.676l2.391-2.391c.684-.684.684-1.792,0-2.475-.684-.684-1.791-.684-2.475,0l-2.391,2.391c-5.052-5.598-8.266-12.885-8.676-20.902h3.399c.967,0,1.75-.784,1.75-1.75s-.783-1.75-1.75-1.75h-3.399c.41-8.016,3.624-15.304,8.676-20.902l2.391,2.391c.684.684,1.791.684,2.475,0,.684-.683.684-1.791,0-2.475l-2.391-2.391c5.598-5.052,12.885-8.266,20.902-8.676v3.4c0,.966.783,1.75,1.75,1.75s1.75-.784,1.75-1.75v-3.4c8.016.41,15.303,3.624,20.902,8.676l-2.391,2.391c-.684.684-.684,1.792,0,2.475.342.342.789.513,1.237.513s.896-.171,1.237-.513l2.391-2.391c5.052,5.598,8.266,12.886,8.676,20.902h-3.399c-.967,0-1.75.784-1.75,1.75s.783,1.75,1.75,1.75Z" fill="#fff"/><path d="m64,49.465c-3.378,0-6.482,1.168-8.952,3.108l-6.131-6.13c-.684-.684-1.791-.684-2.475,0-.684.684-.684,1.792,0,2.475l6.131,6.13c-1.94,2.47-3.107,5.574-3.107,8.952,0,8.014,6.52,14.534,14.534,14.534s14.534-6.52,14.534-14.534-6.52-14.534-14.534-14.534Zm0,25.568c-6.084,0-11.034-4.95-11.034-11.034s4.95-11.034,11.034-11.034,11.034,4.95,11.034,11.034-4.95,11.034-11.034,11.034Z" fill="#fff"/><path d="m68.514,64.927c-.225-.461-.518-.849-.88-1.161s-.762-.565-1.198-.758c-.438-.194-.874-.365-1.311-.515-.438-.149-.84-.3-1.208-.449-.368-.15-.665-.328-.889-.534s-.337-.471-.337-.796c0-.4.153-.696.459-.889.305-.194.72-.291,1.245-.291.462,0,.89.11,1.283.328.393.219.777.527,1.151.927l1.873-1.91c-.475-.549-1.086-.986-1.835-1.311-.493-.214-1.012-.35-1.554-.423v-1.749h-2.079v1.792c-.415.076-.803.192-1.161.351-.687.306-1.223.752-1.61,1.339-.387.586-.581,1.291-.581,2.116,0,.661.109,1.217.328,1.666.218.449.508.817.871,1.105.362.287.758.531,1.189.73s.864.371,1.301.515c.437.143.837.296,1.198.459s.656.355.88.58.337.512.337.862c0,.424-.172.755-.515.992-.344.237-.815.356-1.414.356-.649,0-1.223-.14-1.723-.421-.499-.28-.955-.67-1.366-1.17l-1.873,1.91c.637.724,1.332,1.261,2.088,1.61.598.276,1.284.439,2.05.497v1.713h2.079v-1.823c.886-.16,1.636-.463,2.218-.938.88-.718,1.32-1.706,1.32-2.968,0-.699-.112-1.279-.337-1.741Z" fill="#fff"/></svg>