<?xml version="1.0" encoding="UTF-8"?><svg id="a" xmlns="http://www.w3.org/2000/svg" viewBox="0 0 128 128"><path d="m105.084,78.624l-16.874-19.57c-1.442-1.674-3.982-1.891-5.688-.421l-3.458,2.981h-.001c-.824.711-1.284,1.686-1.374,2.693-3.64.865-8.044,1.899-10.934,2.554-1.765.387-3.429,1.127-4.926,2.187l-2.255,1.547c-3.724-1.766-8.026-2.903-11.299-3.589l.109-.145c1.338-1.776.981-4.31-.795-5.648l-3.648-2.747c-1.776-1.337-4.309-.979-5.647.796l-15.544,20.642c-1.342,1.783-.984,4.31.795,5.649l3.647,2.747s0,0,0,0c1.196.9,2.836,1.101,4.297.336,1.531,2.285,4.181,5.535,8.419,9.551l-.957,1.272c-1.863,2.474-1.366,6.002,1.108,7.866,1.144.861,2.57,1.258,4.028,1.088.238,1.426.989,2.69,2.149,3.563,1.116.841,2.5,1.264,4.03,1.086.228,1.373.951,2.666,2.148,3.568,1.146.862,2.575,1.258,4.03,1.087.229,1.371.951,2.663,2.146,3.563,2.47,1.861,5.991,1.382,7.866-1.107l.953-1.266.099.074c2.503,1.884,6.014,1.345,7.86-1.105.574-.763.937-1.64,1.07-2.558,1.998.376,4.192-.353,5.536-2.137.877-1.155,1.265-2.578,1.099-4.017,1.428-.242,2.686-1.004,3.558-2.161.659-.881,1.02-1.893,1.102-2.916,1.901.13,3.759-.695,4.914-2.23,1.858-2.469,1.358-5.994-1.116-7.861l-1.171-.882c2.003-1.703,3.757-4.127,4.955-6.47l.202.234c1.452,1.685,3.995,1.879,5.688.421l3.458-2.982c1.687-1.455,1.876-4,.42-5.688Zm-75.788,6.879l-3.648-2.747c-.235-.178-.283-.511-.105-.747l15.545-20.643c.175-.234.511-.282.746-.105l3.648,2.746c.235.178.282.512.105.747l-15.545,20.643c-.175.234-.509.282-.746.105Zm12.867,19.024c-.932-.703-1.12-2.032-.417-2.965.131-.174,5.787-7.684,5.698-7.566.699-.928,2.023-1.126,2.964-.418h0c.936.705,1.12,2.032.418,2.964l-5.698,7.567c-.703.933-2.032,1.12-2.964.418Zm6.177,4.65c-.936-.704-1.12-2.031-.417-2.963l5.698-7.567c.706-.936,2.037-1.115,2.964-.418.932.703,1.12,2.032.418,2.965l-5.698,7.566c-.706.938-2.033,1.12-2.964.417Zm6.178,4.653c-.933-.703-1.12-2.032-.418-2.965l5.698-7.566c.7-.93,2.03-1.122,2.964-.417h0c.933.703,1.121,2.028.417,2.964l-5.698,7.566c-.692.921-2.012,1.132-2.963.418Zm6.177,4.65c-.932-.701-1.119-2.03-.418-2.963l5.698-7.566c.685-.91,2.008-1.138,2.964-.418h0c.939.708,1.103,2.052.417,2.964l-5.698,7.567c-.715.95-2.047,1.109-2.964.417Zm11.877-2.714c-.69.915-2.014,1.128-2.962.414l-.097-.073,2.539-3.371.096.072s.002,0,.003.002c.937.703,1.117,2.031.421,2.956Zm17.279-16.02c-.667.888-1.985,1.159-2.972.412-17.123-12.892-13.372-10.067-13.923-10.482-.772-.582-1.87-.427-2.451.346-.582.772-.427,1.869.345,2.451l12.558,9.457s.005.005.008.007c.927.699,1.112,2.028.415,2.96-.688.912-2.004,1.128-2.954.418-.002-.002-.004-.004-.006-.006l-13.278-9.999c-.772-.584-1.87-.429-2.451.345-.582.772-.427,1.869.345,2.45l13.26,9.986c.007.005.012.012.019.017.922.693,1.128,2.018.416,2.959-.675.895-2,1.149-2.966.41-.101-.076-3.145-2.353-2.954-2.21.011-1.717-.743-3.419-2.217-4.528-1.162-.876-2.586-1.249-4.027-1.082-.237-1.43-.99-2.697-2.151-3.571-1.199-.901-2.644-1.238-4.028-1.077-.227-1.376-.95-2.672-2.149-3.575h0c-1.198-.903-2.642-1.24-4.026-1.078-.235-1.431-.989-2.698-2.151-3.573-2.47-1.861-5.991-1.382-7.865,1.107l-2.635,3.499c-2.693-2.62-6.138-6.259-8.052-9.378l11.975-15.901c2.685.496,6.62,1.384,10.233,2.82l-2.007,1.377c-2.697,1.929-3.347,5.712-1.45,8.432,1.962,2.825,5.824,3.378,8.453,1.518l6.103-4.153c.24.181,19.469,14.66,22.158,16.685.934.704,1.125,2.032.426,2.96Zm-2.378-8.812l-19.101-14.382c-.561-.424-1.369-.477-2.003-.065-.011.007-.024.009-.035.016l-7.165,4.877c-1.082.763-2.726.594-3.584-.642-.808-1.158-.533-2.767.584-3.565l7.661-5.255c1.133-.802,2.369-1.354,3.685-1.642,3.026-.684,7.669-1.776,11.396-2.663l13.894,16.114c-1.146,2.834-3.3,5.74-5.333,7.206Zm14.905-9.274l-3.458,2.983c-.238.205-.57.154-.752-.056-17.845-20.717-16.793-19.416-16.979-19.767-.057-.195-.003-.414.16-.556l3.458-2.981c.222-.19.557-.17.752.056l16.874,19.57c.192.223.169.558-.056.752Z" fill="#fff"/><path d="m64,57.85c14.408,0,26.129-11.722,26.129-26.129s-11.721-26.129-26.129-26.129-26.129,11.722-26.129,26.129,11.721,26.129,26.129,26.129Zm0-48.758c12.477,0,22.629,10.151,22.629,22.629s-10.151,22.629-22.629,22.629-22.629-10.151-22.629-22.629,10.151-22.629,22.629-22.629Z" fill="#fff"/><path d="m73.156,33.436c-.449-.923-1.037-1.698-1.76-2.321s-1.523-1.129-2.395-1.517c-.875-.387-1.749-.73-2.621-1.03-.875-.299-1.68-.599-2.416-.898-.736-.3-1.329-.656-1.778-1.068s-.674-.942-.674-1.591c0-.799.305-1.392.917-1.778.611-.387,1.441-.581,2.489-.581.924,0,1.78.219,2.566.656.785.438,1.554,1.055,2.302,1.854l3.745-3.82c-.949-1.098-2.172-1.972-3.67-2.621-.986-.427-2.025-.7-3.108-.846v-3.497h-4.157v3.585c-.831.153-1.606.384-2.321.702-1.374.612-2.447,1.504-3.221,2.678-.774,1.173-1.161,2.583-1.161,4.232,0,1.323.218,2.434.656,3.332.436.898,1.016,1.635,1.741,2.209.724.575,1.517,1.061,2.378,1.46s1.728.743,2.602,1.03c.874.286,1.673.593,2.397.917s1.311.711,1.76,1.16.674,1.024.674,1.723c0,.848-.344,1.51-1.029,1.984-.688.475-1.629.712-2.828.712-1.298,0-2.447-.281-3.445-.843-.998-.561-1.909-1.341-2.733-2.34l-3.745,3.82c1.274,1.449,2.665,2.521,4.175,3.221,1.196.553,2.568.878,4.101.994v3.425h4.157v-3.647c1.773-.321,3.271-.926,4.437-1.877,1.759-1.436,2.639-3.413,2.639-5.935,0-1.397-.225-2.558-.674-3.482Z" fill="#fff"/></svg>