<?xml version="1.0" encoding="UTF-8"?><svg id="a" xmlns="http://www.w3.org/2000/svg" viewBox="0 0 128 128"><path id="b" d="m69.588,67.101h-14.602c-2.688,0-4.867,2.179-4.867,4.867v38.936c-.003,2.687,2.174,4.867,4.86,4.87h14.609c2.688,0,4.867-2.179,4.867-4.867v-38.943c-.001-2.687-2.18-4.864-4.867-4.863Z" fill="#fff"/><path d="m100.057,8.696c-9.354,0-16.937,7.583-16.937,16.937s7.583,16.937,16.937,16.937,16.936-7.583,16.936-16.937-7.583-16.937-16.936-16.937Zm.883,26.953v1.731c.06.463-.267.887-.73.948-.463.06-.888-.267-.948-.73-.009-.072-.009-.145,0-.218v-1.731c-4.732-.116-7.083-2.943-7.083-5.159-.086-.886.562-1.675,1.448-1.761.095-.009.19-.01.285-.002,3.136,0,.699,3.863,5.359,4.061v-5.855c-4.168-.753-6.683-2.57-6.683-5.68,0-3.805,3.164-5.771,6.664-5.881v-1.489c-.055-.464.277-.884.741-.939s.884.277.939.741c.008.066.008.132,0,.198v1.489c2.181.056,6.666,1.426,6.666,4.175.029.928-.699,1.705-1.628,1.735-.046.001-.092.001-.138-.001-1.824,0-1.796-2.996-4.893-3.052v5.322c3.7.783,6.971,1.878,6.971,6.191,0,3.749-2.796,5.657-6.971,5.909Z" fill="#fff"/><path d="m100.928,27.25v5.545c1.682-.119,3.446-.916,3.446-2.749,0-1.906-1.936-2.463-3.446-2.796Z" fill="#fff"/><path d="m96.112,20.612c0,1.398,1.044,2.213,3.141,2.63l-.002-5.012c-1.904.054-3.138,1.179-3.138,2.381Z" fill="#fff"/><path id="c" d="m31.854,84.133h-14.6c-2.687.001-4.865,2.18-4.865,4.867v21.902c0,2.688,2.177,4.867,4.865,4.87h14.6c2.687.001,4.866-2.176,4.867-4.863v-21.909c.001-2.687-2.176-4.866-4.863-4.867h-.005Z" fill="#fff"/><path id="d" d="m107.547,47.632h-14.586c-2.687,0-4.866,2.178-4.867,4.865v58.403c-.001,2.687,2.176,4.866,4.863,4.867h14.602c2.687.001,4.866-2.176,4.867-4.863v-58.405c.001-2.687-2.176-4.866-4.863-4.867-.005,0-.011,0-.016,0Z" fill="#fff"/><path id="e" d="m78.15,33.692l-12.086-2.526c-1.315-.276-2.604.566-2.88,1.881-.117.559-.034,1.142.235,1.646l2.68,5.037-53.589,27.64c-1.193.618-1.659,2.086-1.041,3.279.418.807,1.251,1.313,2.159,1.314.388.002.77-.091,1.114-.27l53.636-27.668,2.458,4.62c.422.795,1.248,1.291,2.148,1.291h.123c.943-.047,1.773-.636,2.13-1.51l4.66-11.433c.275-.669.236-1.425-.105-2.062-.342-.632-.941-1.084-1.643-1.24Z" fill="#fff"/></svg>