<?xml version="1.0" encoding="UTF-8"?><svg id="a" xmlns="http://www.w3.org/2000/svg" viewBox="0 0 128 128"><path d="m77.296,76.622c14.664-14.664,14.667-38.401,0-53.066-7.087-7.087-16.51-10.991-26.533-10.991s-19.446,3.903-26.533,10.991c-14.665,14.664-14.666,38.4,0,53.066,7.087,7.087,16.51,10.991,26.533,10.991s19.446-3.903,26.533-10.991ZM26.704,26.03c6.426-6.426,14.971-9.965,24.059-9.965s17.632,3.539,24.059,9.965c13.296,13.296,13.298,34.819,0,48.117-6.426,6.426-14.97,9.965-24.059,9.965s-17.632-3.539-24.059-9.965c-13.296-13.296-13.298-34.819,0-48.117Z" fill="#fff"/><path d="m116.825,97.297l-21.118-15.732,2.609-2.609h0c2.749-2.749,2.749-7.224,0-9.974-1.644-1.644-3.904-2.297-6.043-1.975,6.477-16.437,2.731-35.566-10.006-48.304-8.48-8.48-19.769-13.15-31.787-13.15s-23.308,4.671-31.787,13.15c-17.539,17.538-17.537,46.018.01,63.565,8.624,8.624,20.18,13.13,31.845,13.13,5.562,0,11.148-1.032,16.455-3.123-.35,2.34.449,4.512,1.979,6.042,2.756,2.756,7.218,2.757,9.974,0l2.609-2.609,15.732,21.119c5.087,6.825,15.052,7.552,21.059,1.533,6.018-6.007,5.298-15.973-1.531-21.062Zm-95.648-17.504c-16.17-16.17-16.189-42.436-.01-58.615,7.819-7.819,18.229-12.125,29.312-12.125s21.494,4.306,29.312,12.125c13.035,13.036,15.863,33.332,6.918,49.437l-16.096,16.096c-16.105,8.947-36.401,6.118-49.437-6.918Zm55.303,16.049c-1.34,1.341-3.681,1.343-5.023,0-1.389-1.387-1.388-3.636,0-5.024l19.361-19.361c1.385-1.384,3.639-1.385,5.024,0s1.385,3.639,0,5.024l-19.362,19.361Zm39.401,20.042c-4.489,4.497-11.956,3.977-15.778-1.149l-16.038-21.528,9.141-9.14,21.528,16.038c5.11,3.809,5.665,11.271,1.147,15.78Z" fill="#fff"/><path d="m63.361,52.944c-.623-1.28-1.438-2.355-2.442-3.22s-2.113-1.566-3.323-2.104c-1.214-.538-2.426-1.013-3.637-1.429-1.214-.415-2.33-.831-3.352-1.246-1.022-.417-1.844-.91-2.467-1.481s-.935-1.307-.935-2.207c0-1.109.424-1.931,1.273-2.467.847-.538,1.999-.806,3.453-.806,1.282,0,2.469.304,3.56.91,1.089.607,2.156,1.463,3.193,2.572l5.196-5.299c-1.317-1.524-3.014-2.736-5.091-3.637-1.368-.593-2.809-.971-4.311-1.174v-4.852h-5.767v4.973c-1.152.212-2.229.533-3.22.974-1.906.849-3.395,2.086-4.468,3.715-1.073,1.627-1.611,3.583-1.611,5.871,0,1.835.303,3.377.91,4.623.605,1.246,1.41,2.268,2.416,3.065,1.004.797,2.104,1.472,3.298,2.026s2.398,1.031,3.61,1.429c1.212.397,2.321.822,3.325,1.273s1.819.986,2.442,1.609.935,1.42.935,2.391c0,1.177-.477,2.095-1.428,2.752-.954.659-2.261.988-3.923.988-1.801,0-3.395-.39-4.779-1.169-1.385-.778-2.649-1.86-3.792-3.247l-5.196,5.299c1.768,2.01,3.697,3.498,5.792,4.468,1.659.767,3.563,1.218,5.689,1.378v4.752h5.767v-5.06c2.459-.445,4.538-1.285,6.155-2.604,2.44-1.992,3.662-4.735,3.662-8.235,0-1.938-.312-3.549-.935-4.831Z" fill="#fff"/></svg>