<?xml version="1.0" encoding="UTF-8"?><svg id="a" xmlns="http://www.w3.org/2000/svg" viewBox="0 0 128 128"><path d="m64,65.796c-13.246,0-24.023,10.776-24.023,24.022s10.776,24.022,24.023,24.022,24.022-10.776,24.022-24.022-10.776-24.022-24.022-24.022Zm0,44.545c-11.316,0-20.523-9.206-20.523-20.522s9.206-20.522,20.523-20.522,20.522,9.206,20.522,20.522-9.206,20.522-20.522,20.522Z" fill="#fff"/><path d="m118.756,33.14L67.056,6.892c-1.912-.971-4.199-.971-6.111,0L9.244,33.14c-2.279,1.157-3.694,3.464-3.694,6.02v78.221c0,2.619,2.131,4.75,4.75,4.75h9c2.619,0,4.75-2.131,4.75-4.75v-56.32c0-1.792,1.458-3.25,3.25-3.25h73.4c1.792,0,3.25,1.458,3.25,3.25v56.32c0,2.619,2.131,4.75,4.75,4.75h9c2.619,0,4.75-2.131,4.75-4.75V39.159c0-2.556-1.415-4.862-3.694-6.02Zm.194,84.24c0,.689-.561,1.25-1.25,1.25h-9c-.689,0-1.25-.561-1.25-1.25v-56.32c0-3.722-3.028-6.75-6.75-6.75H27.3c-3.722,0-6.75,3.028-6.75,6.75v56.32c0,.689-.56,1.25-1.25,1.25h-9c-.689,0-1.25-.561-1.25-1.25V39.159c0-1.23.682-2.342,1.778-2.898L62.528,10.013c.921-.468,2.02-.47,2.943,0l51.7,26.248c1.097.557,1.778,1.668,1.778,2.898v78.221Z" fill="#fff"/><path d="m72.64,91.689c-.449-.923-1.037-1.698-1.76-2.321s-1.523-1.129-2.395-1.517c-.875-.387-1.749-.73-2.621-1.03-.875-.299-1.68-.599-2.416-.898-.736-.3-1.329-.656-1.778-1.068s-.674-.942-.674-1.591c0-.799.305-1.392.917-1.778.611-.387,1.441-.581,2.489-.581.924,0,1.78.219,2.566.656.785.438,1.554,1.055,2.302,1.854l3.745-3.82c-.949-1.098-2.172-1.972-3.67-2.621-.986-.427-2.025-.7-3.108-.846v-3.497h-4.157v3.585c-.831.153-1.606.384-2.321.702-1.374.612-2.447,1.504-3.221,2.678-.774,1.173-1.161,2.583-1.161,4.232,0,1.323.218,2.434.656,3.332.436.898,1.016,1.635,1.741,2.209.724.575,1.517,1.061,2.378,1.46s1.728.743,2.602,1.03c.874.286,1.673.593,2.397.917s1.311.711,1.76,1.16.674,1.024.674,1.723c0,.848-.344,1.51-1.029,1.984-.688.475-1.629.712-2.828.712-1.298,0-2.447-.281-3.445-.843-.998-.561-1.909-1.341-2.733-2.34l-3.745,3.82c1.274,1.449,2.665,2.521,4.175,3.221,1.196.553,2.568.878,4.101.994v3.425h4.157v-3.647c1.773-.321,3.271-.926,4.437-1.877,1.759-1.436,2.639-3.413,2.639-5.935,0-1.397-.225-2.558-.674-3.482Z" fill="#fff"/></svg>