<?xml version="1.0" encoding="UTF-8"?>
<svg id="a" data-name="Layer 1" xmlns="http://www.w3.org/2000/svg" width="322.61" height="490.487" viewBox="0 0 322.61 490.487">
  <circle cx="247.157" cy="75.137" r="75" fill="#3ca6a6"/>
  <g>
    <path d="m288.242,89.761l-16.874-19.57c-1.442-1.674-3.982-1.891-5.688-.421l-3.458,2.981h-.001c-.824.711-1.284,1.686-1.374,2.693-3.64.865-8.044,1.899-10.934,2.554-1.765.387-3.429,1.127-4.926,2.187l-2.255,1.547c-3.724-1.766-8.026-2.903-11.299-3.589l.109-.145c1.338-1.776.981-4.31-.795-5.648l-3.648-2.747c-1.776-1.337-4.309-.979-5.647.796l-15.544,20.642c-1.342,1.783-.985,4.31.795,5.649l3.647,2.747s0,0,0,0c1.196.9,2.836,1.101,4.297.336,1.531,2.285,4.181,5.535,8.419,9.551l-.958,1.272c-1.863,2.474-1.366,6.002,1.108,7.866,1.144.861,2.57,1.258,4.028,1.088.238,1.426.989,2.69,2.149,3.563,1.116.841,2.499,1.264,4.03,1.086.228,1.373.951,2.666,2.148,3.568,1.146.862,2.575,1.258,4.03,1.087.229,1.371.951,2.663,2.147,3.563,2.47,1.861,5.991,1.382,7.866-1.107l.953-1.266.099.074c2.503,1.884,6.014,1.345,7.86-1.105.574-.763.937-1.64,1.07-2.558,1.998.376,4.192-.353,5.536-2.137.877-1.155,1.265-2.578,1.099-4.017,1.428-.242,2.686-1.004,3.558-2.161.659-.881,1.02-1.893,1.103-2.916,1.901.13,3.759-.695,4.914-2.23,1.858-2.469,1.358-5.994-1.116-7.861l-1.171-.882c2.003-1.703,3.756-4.127,4.955-6.47l.202.234c1.452,1.685,3.995,1.879,5.688.421l3.458-2.982c1.687-1.455,1.876-4,.42-5.688Zm-75.788,6.879l-3.647-2.747c-.235-.178-.283-.511-.105-.747l15.545-20.643c.175-.234.511-.282.746-.105l3.648,2.746c.235.178.282.512.105.747l-15.545,20.643c-.175.234-.509.282-.746.105Zm12.867,19.024c-.932-.703-1.12-2.032-.417-2.965.131-.174,5.787-7.684,5.698-7.566.699-.928,2.023-1.126,2.964-.418h0c.936.705,1.12,2.032.418,2.964l-5.698,7.567c-.703.933-2.032,1.12-2.964.418Zm6.177,4.65c-.936-.704-1.12-2.031-.417-2.963l5.698-7.567c.706-.936,2.037-1.115,2.964-.418.932.703,1.12,2.032.417,2.965l-5.698,7.566c-.706.938-2.033,1.12-2.964.417Zm6.178,4.653c-.933-.703-1.12-2.032-.418-2.965l5.698-7.566c.7-.93,2.03-1.122,2.964-.417h0c.933.703,1.121,2.028.417,2.964l-5.698,7.566c-.692.921-2.012,1.132-2.963.418Zm6.177,4.65c-.932-.701-1.119-2.03-.417-2.963l5.698-7.566c.685-.91,2.008-1.138,2.964-.418h0c.94.708,1.103,2.052.417,2.964l-5.698,7.567c-.715.95-2.047,1.109-2.964.417Zm11.878-2.714c-.69.915-2.014,1.128-2.961.414l-.097-.073,2.539-3.371.096.072s.002,0,.003.002c.937.703,1.117,2.031.421,2.956Zm17.279-16.02c-.667.888-1.985,1.159-2.972.412-17.123-12.892-13.372-10.067-13.923-10.482-.772-.582-1.87-.427-2.451.346-.582.772-.427,1.869.345,2.451l12.558,9.457s.005.005.008.007c.927.699,1.112,2.028.415,2.96-.688.912-2.004,1.128-2.954.418-.002-.002-.004-.004-.006-.006l-13.278-9.999c-.772-.584-1.87-.429-2.451.345-.582.772-.427,1.869.345,2.45l13.26,9.986c.007.005.012.012.019.017.922.693,1.128,2.018.415,2.959-.675.895-2,1.149-2.966.41-.101-.076-3.145-2.353-2.954-2.21.011-1.717-.743-3.419-2.217-4.528-1.162-.876-2.586-1.249-4.027-1.082-.237-1.43-.99-2.697-2.151-3.571-1.199-.901-2.644-1.238-4.028-1.077-.227-1.376-.95-2.672-2.149-3.575h0c-1.198-.903-2.642-1.24-4.026-1.078-.236-1.431-.989-2.698-2.151-3.573-2.47-1.861-5.99-1.382-7.865,1.107l-2.635,3.499c-2.693-2.62-6.138-6.259-8.052-9.378l11.975-15.901c2.685.496,6.62,1.384,10.233,2.82l-2.007,1.377c-2.697,1.929-3.347,5.712-1.45,8.432,1.962,2.825,5.824,3.378,8.453,1.518l6.103-4.153c.24.181,19.469,14.66,22.158,16.685.934.704,1.125,2.032.426,2.96Zm-2.379-8.812l-19.101-14.382c-.561-.424-1.369-.477-2.003-.065-.011.007-.024.009-.035.016l-7.165,4.877c-1.082.763-2.726.594-3.585-.642-.808-1.158-.533-2.767.584-3.565l7.661-5.255c1.133-.802,2.369-1.354,3.685-1.642,3.026-.684,7.669-1.776,11.396-2.663l13.894,16.114c-1.146,2.834-3.299,5.74-5.333,7.206Zm14.905-9.274l-3.458,2.983c-.238.205-.57.154-.752-.056-17.845-20.717-16.793-19.416-16.979-19.767-.057-.195-.003-.414.16-.556l3.458-2.981c.222-.19.557-.17.752.056l16.874,19.57c.192.223.169.558-.056.752Z" fill="#fff"/>
    <path d="m247.157,68.987c14.408,0,26.129-11.722,26.129-26.129s-11.721-26.129-26.129-26.129-26.129,11.722-26.129,26.129,11.721,26.129,26.129,26.129Zm0-48.758c12.478,0,22.629,10.151,22.629,22.629s-10.151,22.629-22.629,22.629-22.629-10.151-22.629-22.629,10.151-22.629,22.629-22.629Z" fill="#fff"/>
    <path d="m256.314,44.573c-.449-.923-1.037-1.698-1.76-2.321s-1.523-1.129-2.395-1.517c-.875-.387-1.749-.73-2.621-1.03-.875-.299-1.68-.599-2.416-.898-.736-.3-1.329-.656-1.778-1.068s-.674-.942-.674-1.591c0-.799.305-1.392.917-1.778.611-.387,1.441-.581,2.489-.581.924,0,1.78.219,2.566.656.785.438,1.554,1.055,2.302,1.854l3.745-3.82c-.949-1.098-2.172-1.972-3.67-2.621-.986-.427-2.025-.7-3.108-.846v-3.497h-4.157v3.585c-.831.153-1.606.384-2.321.702-1.374.612-2.447,1.504-3.221,2.678-.774,1.173-1.161,2.583-1.161,4.232,0,1.323.218,2.434.656,3.332.436.898,1.016,1.635,1.741,2.209.724.575,1.517,1.061,2.378,1.46s1.728.743,2.602,1.03c.874.286,1.673.593,2.397.917s1.311.711,1.76,1.16.674,1.024.674,1.723c0,.848-.344,1.51-1.029,1.984-.688.475-1.629.712-2.828.712-1.298,0-2.447-.281-3.445-.843-.998-.561-1.909-1.341-2.733-2.34l-3.745,3.82c1.274,1.449,2.665,2.521,4.175,3.221,1.196.553,2.568.878,4.101.994v3.425h4.157v-3.647c1.773-.321,3.271-.926,4.437-1.877,1.759-1.436,2.639-3.413,2.639-5.935,0-1.397-.225-2.558-.674-3.482Z" fill="#fff"/>
  </g>
  <g>
    <circle cx="247.61" cy="244.51" r="75" fill="#3ca6a6"/>
    <g>
      <path d="m257.982,254.351c11.433-11.433,11.435-29.939,0-41.373-5.525-5.526-12.872-8.569-20.687-8.569s-15.161,3.043-20.687,8.569c-11.433,11.433-11.435,29.939,0,41.373,5.526,5.526,12.872,8.569,20.687,8.569s15.161-3.043,20.687-8.569Zm-39.444-39.444c5.01-5.01,11.672-7.77,18.757-7.77s13.747,2.759,18.757,7.77c10.367,10.367,10.368,27.147,0,37.515-5.01,5.01-11.672,7.769-18.757,7.769s-13.747-2.759-18.757-7.769c-10.366-10.366-10.368-27.147,0-37.515Z" fill="#fff"/>
      <path d="m288.801,270.471l-16.465-12.266,2.034-2.034h0c2.143-2.144,2.143-5.632,0-7.776-1.282-1.282-3.043-1.791-4.712-1.54,5.05-12.815,2.13-27.729-7.801-37.66-6.611-6.611-15.413-10.253-24.783-10.253s-18.172,3.641-24.783,10.253c-13.674,13.673-13.673,35.878.008,49.558,6.724,6.724,15.733,10.237,24.828,10.237,4.337,0,8.692-.805,12.829-2.435-.273,1.825.35,3.518,1.543,4.711,2.149,2.149,5.627,2.15,7.776,0l2.034-2.034,12.266,16.465c3.966,5.321,11.736,5.888,16.419,1.195,4.692-4.683,4.13-12.453-1.194-16.421Zm-74.572-13.647c-12.607-12.607-12.622-33.085-.008-45.7,6.096-6.096,14.212-9.453,22.854-9.453s16.758,3.357,22.854,9.453c10.163,10.163,12.367,25.988,5.393,38.544l-12.549,12.549c-12.556,6.975-28.38,4.77-38.544-5.393Zm43.117,12.513c-1.045,1.046-2.87,1.047-3.917,0-1.083-1.082-1.082-2.835,0-3.917l15.095-15.095c1.08-1.079,2.837-1.08,3.917,0s1.08,2.837,0,3.917l-15.095,15.095Zm30.719,15.626c-3.5,3.506-9.322,3.101-12.301-.896l-12.504-16.785,7.126-7.126,16.784,12.504c3.984,2.969,4.417,8.788.895,12.303Z" fill="#fff"/>
      <path d="m247.117,235.891c-.486-.998-1.121-1.836-1.904-2.511s-1.647-1.221-2.591-1.64c-.946-.419-1.892-.79-2.835-1.114-.946-.323-1.817-.648-2.613-.971-.797-.325-1.438-.709-1.924-1.155s-.729-1.019-.729-1.721c0-.865.33-1.506.992-1.924.661-.419,1.559-.629,2.692-.629.999,0,1.925.237,2.776.709.849.473,1.681,1.141,2.49,2.005l4.051-4.132c-1.027-1.188-2.35-2.133-3.969-2.835-1.067-.462-2.19-.757-3.361-.915v-3.783h-4.497v3.877c-.898.165-1.738.415-2.511.759-1.486.662-2.647,1.627-3.483,2.896-.837,1.268-1.256,2.794-1.256,4.577,0,1.431.236,2.633.709,3.604.472.971,1.099,1.768,1.883,2.39.783.622,1.64,1.148,2.572,1.579s1.869.804,2.815,1.114c.945.309,1.81.641,2.592.992s1.418.769,1.904,1.255.729,1.107.729,1.864c0,.917-.372,1.633-1.113,2.146-.744.513-1.763.77-3.059.77-1.404,0-2.647-.304-3.726-.912-1.08-.606-2.065-1.45-2.956-2.531l-4.051,4.132c1.378,1.567,2.883,2.727,4.516,3.483,1.294.598,2.778.95,4.435,1.075v3.705h4.497v-3.945c1.918-.347,3.538-1.001,4.799-2.03,1.903-1.553,2.855-3.692,2.855-6.42,0-1.511-.243-2.767-.729-3.767Z" fill="#fff"/>
    </g>
  </g>
  <g>
    <circle cx="78.409" cy="75" r="75" fill="#3ca6a6"/>
    <g>
      <path d="m119.115,111.689h-3.264v-38.498c0-2.004-1.63-3.635-3.635-3.635h-4.936c-2.004,0-3.635,1.631-3.635,3.635v38.498h-6.763v-29.362c0-2.004-1.631-3.635-3.635-3.635h-4.936c-2.004,0-3.635,1.631-3.635,3.635v29.362h-6.762v-21.339c0-2.004-1.631-3.635-3.635-3.635h-4.936c-2.004,0-3.635,1.63-3.635,3.635v21.339h-6.763v-14.498c0-2.004-1.63-3.635-3.635-3.635h-4.936c-2.004,0-3.635,1.631-3.635,3.635v14.498h-3.681c-.738,0-1.339-.601-1.339-1.339V34.294c0-2.215-1.802-4.017-4.017-4.017s-4.017,1.802-4.017,4.017v81.412c0,2.215,1.802,4.017,4.017,4.017h81.412c2.215,0,4.017-1.802,4.017-4.017s-1.802-4.017-4.017-4.017Zm-12.791-38.498c0-.528.429-.956.956-.956h4.936c.528,0,.956.429.956.956v38.498h-6.849v-38.498Zm-18.969,9.135c0-.528.429-.956.956-.956h4.936c.528,0,.956.429.956.956v29.362h-6.849v-29.362Zm-18.968,8.023c0-.528.429-.956.956-.956h4.936c.528,0,.956.429.956.956v21.339h-6.849v-21.339Zm-18.969,6.841c0-.528.429-.956.956-.956h4.936c.528,0,.956.429.956.956v14.498h-6.849v-14.498Zm69.697,19.854H37.703c-.738,0-1.339-.601-1.339-1.339V34.294c0-.738.601-1.339,1.339-1.339s1.339.601,1.339,1.339v76.056c0,2.215,1.802,4.017,4.017,4.017h76.056c.738,0,1.339.601,1.339,1.339s-.601,1.339-1.339,1.339Z" fill="#fff"/>
      <path d="m52.843,86.008c2.733,0,4.956-2.223,4.956-4.956,0-1.509-.679-2.859-1.746-3.769l3.251-7.062c.253.04.51.067.774.067,1.205,0,2.309-.433,3.169-1.15l3.879,2.663c-.172.503-.27,1.04-.27,1.6,0,2.733,2.223,4.956,4.956,4.956s4.957-2.223,4.957-4.956c0-1.594-.759-3.01-1.931-3.918l3.733-9.244c.179.02.361.032.545.032.901,0,1.745-.246,2.474-.668l4.845,4.742c-.388.706-.61,1.517-.61,2.378,0,2.733,2.224,4.957,4.956,4.957s4.957-2.224,4.957-4.957c0-1.039-.323-2.003-.871-2.801l12.854-15.359c.62.28,1.306.439,2.029.439,2.733,0,4.957-2.223,4.957-4.957s-2.224-4.956-4.957-4.956-4.956,2.223-4.956,4.956c0,1.039.323,2.004.872,2.801l-12.854,15.359c-.62-.28-1.306-.439-2.029-.439-.9,0-1.743.245-2.471.666l-4.846-4.743c.387-.706.608-1.515.608-2.375,0-2.733-2.223-4.957-4.956-4.957s-4.957,2.224-4.957,4.957c0,1.593.759,3.009,1.93,3.917l-3.733,9.245c-.179-.02-.36-.031-.544-.031-1.204,0-2.309.433-3.169,1.149l-3.879-2.663c.172-.503.27-1.039.27-1.599,0-2.733-2.224-4.957-4.956-4.957s-4.957,2.224-4.957,4.957c0,1.51.681,2.862,1.749,3.772l-3.25,7.06c-.254-.04-.512-.067-.778-.067-2.733,0-4.956,2.224-4.956,4.957s2.224,4.956,4.956,4.956Zm56.905-44.242c1.256,0,2.278,1.022,2.278,2.278s-1.022,2.278-2.278,2.278-2.278-1.022-2.278-2.278,1.022-2.278,2.278-2.278Zm-16.69,24.956c0,1.256-1.022,2.278-2.278,2.278s-2.278-1.022-2.278-2.278,1.022-2.278,2.278-2.278,2.278,1.022,2.278,2.278Zm-13.944-13.686c1.256,0,2.278,1.022,2.278,2.278,0,.614-.247,1.17-.643,1.58-.002.002-.005.004-.008.006-.009.009-.014.019-.022.028-.412.41-.979.664-1.605.664-1.256,0-2.278-1.022-2.278-2.278s1.022-2.278,2.278-2.278Zm-7.303,18.086c1.256,0,2.278,1.022,2.278,2.278s-1.022,2.278-2.278,2.278-2.278-1.022-2.278-2.278c0-.471.144-.909.389-1.273.005-.007.012-.012.017-.02,0-.001.002-.003.002-.005.412-.592,1.095-.982,1.869-.982Zm-11.734-8.069c1.256,0,2.278,1.022,2.278,2.278,0,.465-.141.898-.382,1.259-.008.011-.018.02-.026.031-.004.005-.005.011-.009.016-.413.586-1.091.972-1.861.972-1.256,0-2.278-1.022-2.278-2.278s1.022-2.278,2.278-2.278Zm-7.235,15.721c1.256,0,2.278,1.022,2.278,2.278s-1.022,2.278-2.278,2.278-2.278-1.022-2.278-2.278,1.022-2.278,2.278-2.278Z" fill="#fff"/>
    </g>
  </g>
  <g>
    <circle cx="77.645" cy="244.737" r="75" fill="#3ca6a6"/>
    <g>
      <path d="m131.902,230.719l-10.239-2.407c-.611-.144-1.112-.587-1.388-1.253-.262-.631-.222-1.299.109-1.834l5.537-8.941c1.335-2.155,1.016-4.912-.776-6.704l-12.344-12.343c-1.792-1.793-4.547-2.112-6.703-.777l-8.941,5.538c-.535.332-1.202.371-1.871.094-.629-.26-1.072-.76-1.217-1.374l-2.406-10.238c-.58-2.467-2.756-4.19-5.29-4.19h-17.455c-2.534,0-4.71,1.723-5.29,4.19l-2.407,10.238c-.144.613-.587,1.113-1.253,1.388-.634.262-1.301.222-1.834-.109l-8.941-5.538c-2.155-1.335-4.91-1.015-6.703.777l-12.344,12.343c-1.792,1.792-2.111,4.549-.776,6.704l5.537,8.941c.331.535.371,1.204.094,1.872-.26.629-.761,1.073-1.373,1.216l-10.238,2.407c-2.467.58-4.19,2.755-4.19,5.29v17.456c0,2.535,1.724,4.71,4.19,5.29l10.238,2.406c.612.144,1.113.587,1.389,1.254.262.631.222,1.3-.109,1.835l-5.537,8.94c-1.335,2.155-1.016,4.912.776,6.704l12.344,12.343c1.792,1.792,4.546,2.113,6.703.777l8.941-5.538c.535-.331,1.202-.37,1.871-.094.629.26,1.072.76,1.217,1.374l2.406,10.238c.58,2.467,2.756,4.19,5.29,4.19h17.455c2.534,0,4.71-1.723,5.29-4.19l2.407-10.238c.144-.613.587-1.113,1.253-1.388.634-.263,1.3-.222,1.834.109l8.941,5.538c2.155,1.335,4.91,1.015,6.703-.777l12.344-12.343c1.792-1.792,2.111-4.549.776-6.704l-5.536-8.94c-.332-.535-.372-1.204-.095-1.872.26-.629.761-1.073,1.373-1.217l10.238-2.406c2.467-.58,4.19-2.755,4.19-5.29v-17.456c0-2.535-1.724-4.709-4.19-5.29Zm.69,22.745c0,.902-.613,1.676-1.491,1.883l-10.238,2.406c-1.697.399-3.121,1.627-3.822,3.321-.686,1.659-.549,3.535.369,5.018l5.537,8.94c.475.767.361,1.748-.276,2.386l-12.344,12.343c-.64.639-1.619.751-2.385.276l-8.941-5.537c-1.48-.918-3.355-1.057-5.053-.354-1.658.686-2.887,2.109-3.285,3.807l-2.406,10.237c-.207.878-.981,1.492-1.884,1.492h-17.455c-.902,0-1.677-.613-1.884-1.491l-2.405-10.237c-.399-1.698-1.628-3.122-3.321-3.822-1.655-.686-3.53-.553-5.018.367l-8.941,5.538c-.768.476-1.747.36-2.385-.276l-12.344-12.343c-.638-.638-.751-1.619-.276-2.386l5.538-8.94c.917-1.483,1.055-3.358.353-5.053-.686-1.659-2.109-2.887-3.807-3.286l-10.238-2.406c-.878-.207-1.491-.98-1.491-1.883v-17.456c0-.902.613-1.676,1.491-1.882l10.237-2.407c1.698-.398,3.121-1.627,3.823-3.321.687-1.66.55-3.535-.369-5.017l-5.537-8.941c-.475-.767-.361-1.748.276-2.386l12.344-12.343c.639-.638,1.619-.752,2.385-.276l8.941,5.537c1.481.918,3.356,1.057,5.053.354,1.658-.686,2.887-2.109,3.285-3.807l2.406-10.237c.207-.878.981-1.492,1.884-1.492h17.455c.902,0,1.677.613,1.884,1.491l2.405,10.237c.399,1.698,1.628,3.122,3.321,3.822,1.657.686,3.535.55,5.018-.367l8.941-5.538c.768-.477,1.746-.361,2.385.276l12.344,12.343c.638.638.751,1.619.276,2.386l-5.537,8.941c-.919,1.482-1.056,3.357-.353,5.052.687,1.659,2.109,2.887,3.807,3.286l10.238,2.407c.878.207,1.491.98,1.491,1.882v17.456Z" fill="#fff"/>
      <path d="m77.619,207.287c-20.644,0-37.348,16.801-37.348,37.348s16.658,37.348,37.348,37.348c20.533,0,37.348-16.704,37.348-37.348,0-20.491-16.658-37.348-37.348-37.348Zm30.403,39.098h3.399c-.41,8.016-3.624,15.304-8.676,20.902l-2.391-2.391c-.684-.684-1.791-.684-2.475,0-.684.683-.684,1.791,0,2.475l2.391,2.391c-5.598,5.052-12.885,8.266-20.902,8.676v-3.4c0-.966-.783-1.75-1.75-1.75s-1.75.784-1.75,1.75v3.4c-8.017-.41-15.303-3.624-20.902-8.676l2.391-2.391c.684-.684.684-1.792,0-2.475-.684-.684-1.791-.684-2.475,0l-2.391,2.391c-5.052-5.598-8.266-12.886-8.676-20.902h3.399c.967,0,1.75-.784,1.75-1.75s-.783-1.75-1.75-1.75h-3.399c.41-8.016,3.624-15.304,8.676-20.902l2.391,2.391c.684.684,1.791.684,2.475,0,.684-.683.684-1.791,0-2.475l-2.391-2.391c5.598-5.052,12.885-8.266,20.902-8.676v3.4c0,.966.783,1.75,1.75,1.75s1.75-.784,1.75-1.75v-3.4c8.016.41,15.303,3.624,20.902,8.676l-2.391,2.391c-.684.684-.684,1.792,0,2.475.342.342.789.513,1.237.513s.896-.171,1.237-.513l2.391-2.391c5.052,5.598,8.266,12.886,8.676,20.902h-3.399c-.967,0-1.75.784-1.75,1.75s.783,1.75,1.75,1.75Z" fill="#fff"/>
      <path d="m77.645,230.202c-3.378,0-6.482,1.168-8.952,3.108l-6.131-6.13c-.684-.684-1.791-.684-2.475,0-.684.684-.684,1.792,0,2.475l6.131,6.13c-1.94,2.47-3.107,5.574-3.107,8.952,0,8.014,6.52,14.534,14.534,14.534s14.534-6.52,14.534-14.534-6.52-14.534-14.534-14.534Zm0,25.568c-6.084,0-11.034-4.95-11.034-11.034s4.95-11.034,11.034-11.034,11.034,4.95,11.034,11.034-4.95,11.034-11.034,11.034Z" fill="#fff"/>
      <path d="m82.159,245.664c-.225-.461-.518-.849-.88-1.161s-.762-.565-1.198-.758c-.438-.194-.874-.365-1.311-.515-.438-.149-.84-.3-1.208-.449-.368-.15-.665-.328-.889-.534s-.337-.471-.337-.796c0-.4.153-.696.459-.889.305-.194.72-.291,1.245-.291.462,0,.89.11,1.283.328.393.219.777.527,1.151.927l1.873-1.91c-.475-.549-1.086-.986-1.835-1.311-.493-.214-1.012-.35-1.554-.423v-1.749h-2.079v1.792c-.415.076-.803.192-1.161.351-.687.306-1.223.752-1.61,1.339-.387.586-.581,1.291-.581,2.116,0,.661.109,1.217.328,1.666.218.449.508.817.871,1.105.362.287.758.531,1.189.73s.864.371,1.301.515c.437.143.837.296,1.198.459s.656.355.88.58.337.512.337.862c0,.424-.172.755-.515.992-.344.237-.815.356-1.414.356-.649,0-1.223-.14-1.723-.421-.499-.28-.955-.67-1.366-1.17l-1.873,1.91c.637.724,1.332,1.261,2.088,1.61.598.276,1.284.439,2.05.497v1.713h2.079v-1.823c.886-.16,1.636-.463,2.218-.938.88-.718,1.32-1.706,1.32-2.968,0-.699-.112-1.279-.337-1.741Z" fill="#fff"/>
    </g>
  </g>
  <g>
    <circle cx="75" cy="414.128" r="75" fill="#3ca6a6"/>
    <g>
      <path d="m114.231,369.961h-56.686c-2.894,0-5.249,2.354-5.249,5.249v29.435h-16.527c-2.894,0-5.249,2.354-5.249,5.249v36.151c0,6.732,5.461,12.21,12.185,12.244.022.001.043.007.065.007h71.46c2.894,0,5.249-2.354,5.249-5.249v-77.836c0-2.894-2.355-5.249-5.249-5.249Zm-71.463,85.608c-5.252,0-9.525-4.273-9.525-9.525v-36.151c0-1.393,1.134-2.527,2.527-2.527h16.524v38.678c0,5.252-4.273,9.525-9.525,9.525Zm73.99-2.524c0,1.393-1.134,2.527-2.527,2.527h-63.787c2.784-2.247,4.571-5.681,4.571-9.529,0-2.517.003-70.755.003-70.834,0-1.393,1.134-2.527,2.527-2.527h56.686c1.393,0,2.527,1.134,2.527,2.527v77.836Z" fill="#fff"/>
      <path d="m105.504,442.597h-39.233c-2.251,0-4.082,1.831-4.082,4.082s1.832,4.082,4.082,4.082h39.233c2.251,0,4.082-1.831,4.082-4.082s-1.832-4.082-4.082-4.082Zm0,5.443h-39.233c-.75,0-1.361-.611-1.361-1.361s.61-1.361,1.361-1.361h39.233c.75,0,1.361.611,1.361,1.361s-.61,1.361-1.361,1.361Z" fill="#fff"/>
      <path d="m65.882,438.317h5.805c2.037,0,3.694-1.657,3.694-3.694v-25.646c0-2.037-1.657-3.694-3.694-3.694h-5.805c-2.037,0-3.694,1.657-3.694,3.694v25.646c0,2.037,1.657,3.694,3.694,3.694Zm-.972-29.34c0-.536.436-.972.972-.972h5.805c.536,0,.972.436.972.972v25.646c0,.536-.436.972-.972.972h-5.805c-.536,0-.972-.436-.972-.972v-25.646Z" fill="#fff"/>
      <path d="m88.791,438.317c2.037,0,3.694-1.657,3.694-3.694v-16.541c0-2.037-1.657-3.694-3.694-3.694h-5.806c-2.037,0-3.694,1.657-3.694,3.694v16.541c0,2.037,1.657,3.694,3.694,3.694h5.806Zm-6.778-3.694v-16.541c0-.536.436-.972.972-.972h5.806c.536,0,.972.436.972.972v16.541c0,.536-.436.972-.972.972h-5.806c-.536,0-.972-.436-.972-.972Z" fill="#fff"/>
      <path d="m105.893,420.44h-5.805c-2.037,0-3.694,1.657-3.694,3.694v10.491c0,2.037,1.657,3.694,3.694,3.694h5.805c2.037,0,3.694-1.657,3.694-3.694v-10.491c0-2.037-1.657-3.694-3.694-3.694Zm.972,14.184c0,.536-.436.972-.972.972h-5.805c-.536,0-.972-.436-.972-.972v-10.491c0-.536.436-.972.972-.972h5.805c.536,0,.972.436.972.972v10.491Z" fill="#fff"/>
      <path d="m108.226,397.004h-44.676c-.752,0-1.361.609-1.361,1.361s.609,1.361,1.361,1.361h44.676c.752,0,1.361-.609,1.361-1.361s-.609-1.361-1.361-1.361Z" fill="#fff"/>
      <path d="m108.226,387.249h-44.676c-.752,0-1.361.609-1.361,1.361s.609,1.361,1.361,1.361h44.676c.752,0,1.361-.609,1.361-1.361s-.609-1.361-1.361-1.361Z" fill="#fff"/>
      <path d="m108.226,377.494h-44.676c-.752,0-1.361.609-1.361,1.361s.609,1.361,1.361,1.361h44.676c.752,0,1.361-.609,1.361-1.361s-.609-1.361-1.361-1.361Z" fill="#fff"/>
    </g>
  </g>
  <g>
    <circle cx="246.322" cy="415.487" r="75" fill="#3ca6a6"/>
    <g>
      <path d="m289.894,401.62c.393.393.982.513,1.497.303.514-.209.854-.706.861-1.261l.216-15.694c.013-.802-.659-1.434-1.404-1.406l-15.696.215c-.556.008-1.052.347-1.261.861-.209.515-.09,1.105.303,1.497l3.595,3.595-24.811,24.802-10.017-10.017c-2.292-2.291-6.021-2.291-8.313,0l-32.971,32.971c-2.289,2.289-2.289,6.015,0,8.304,2.289,2.29,6.014,2.289,8.304,0l28.823-28.823,10.019,10.027c2.293,2.282,6.017,2.282,8.301-.002l28.968-28.958,3.585,3.585Zm-34.507,23.419c-1.21,1.209-3.182,1.207-4.395,0l-10.994-11.002c-.538-.538-1.413-.542-1.954,0l-29.8,29.801c-1.211,1.212-3.184,1.213-4.396,0-1.212-1.212-1.212-3.184,0-4.397l32.971-32.971c1.215-1.215,3.191-1.214,4.405,0l10.993,10.993c.54.54,1.414.54,1.954,0l26.764-26.756c.259-.259.405-.611.405-.977s-.146-.718-.405-.977l-2.257-2.258,11.004-.148-.148,11.004-2.248-2.248c-.54-.54-1.414-.54-1.954,0l-29.945,29.935Z" fill="#fff"/>
      <path d="m275.823,428.502c-9.152,0-16.598,7.446-16.598,16.598s7.446,16.598,16.598,16.598,16.599-7.446,16.599-16.598-7.446-16.598-16.599-16.598Zm0,30.433c-7.629,0-13.835-6.206-13.835-13.835s6.206-13.835,13.835-13.835,13.836,6.206,13.836,13.835-6.207,13.835-13.836,13.835Z" fill="#fff"/>
      <path d="m216.774,402.472c9.153,0,16.599-7.446,16.599-16.598s-7.446-16.598-16.599-16.598-16.598,7.446-16.598,16.598,7.446,16.598,16.598,16.598Zm0-30.433c7.629,0,13.835,6.206,13.835,13.835s-6.206,13.835-13.835,13.835-13.835-6.206-13.835-13.835,6.206-13.835,13.835-13.835Z" fill="#fff"/>
      <path d="m222.336,393.799c.523.556,1.399.582,1.953.059.556-.523.582-1.398.059-1.953l-6.193-6.58v-5.437c0-.763-.619-1.382-1.382-1.382s-1.382.618-1.382,1.382v5.985c0,.352.134.691.376.947l6.568,6.979Z" fill="#fff"/>
      <path d="m280.721,446.21c-.242-.498-.559-.916-.949-1.252s-.821-.609-1.292-.818c-.472-.209-.943-.394-1.414-.556-.472-.161-.906-.323-1.303-.484-.397-.162-.717-.354-.959-.576s-.363-.508-.363-.858c0-.431.165-.751.495-.959.329-.209.777-.313,1.343-.313.498,0,.96.118,1.384.354.424.236.838.569,1.241,1l2.02-2.06c-.512-.592-1.172-1.064-1.979-1.414-.532-.23-1.092-.377-1.676-.456v-1.886h-2.242v1.933c-.448.082-.866.207-1.252.379-.741.33-1.32.811-1.737,1.444-.417.633-.626,1.393-.626,2.282,0,.713.118,1.313.354,1.797.235.484.548.882.939,1.192.39.31.818.572,1.282.788s.932.401,1.403.556c.471.154.902.32,1.293.495s.707.383.949.626.363.552.363.929c0,.457-.185.815-.555,1.07-.371.256-.879.384-1.525.384-.7,0-1.32-.152-1.858-.455-.538-.302-1.03-.723-1.474-1.262l-2.02,2.06c.687.781,1.437,1.36,2.252,1.737.645.298,1.385.474,2.212.536v1.847h2.242v-1.967c.956-.173,1.764-.499,2.393-1.012.949-.774,1.423-1.841,1.423-3.201,0-.754-.121-1.38-.363-1.878Z" fill="#fff"/>
    </g>
  </g>
</svg>