<?xml version="1.0" encoding="UTF-8"?><svg id="a" xmlns="http://www.w3.org/2000/svg" viewBox="0 0 128 128"><path d="m122.45,23.49c0-2.619-2.131-4.75-4.75-4.75h-63.932l-3.121-3.959c-.332-.421-.838-.666-1.374-.666H12.3c-3.722,0-6.75,3.028-6.75,6.75v86.27c0,3.722,3.028,6.75,6.75,6.75h103.4c3.722,0,6.75-3.028,6.75-6.75V27.505s0-.003,0-.005c0-.003,0-.006,0-.01v-4Zm-4.75-1.25c.689,0,1.25.561,1.25,1.25v2.25h-59.663l-2.759-3.5h61.173Zm1.249,84.895c0,1.792-1.458,3.25-3.25,3.25H12.3c-1.792,0-3.25-1.458-3.25-3.25V20.865c0-1.792,1.458-3.25,3.25-3.25h36.124l8.551,10.846c.301.45.854.794,1.475.794h60.5v77.88Z" fill="#fff"/><rect x="38.727" y="60.634" width="3.5" height="9.534" fill="#fff"/><rect x="45.273" y="56.282" width="3.5" height="13.886" fill="#fff"/><rect x="51.818" y="51.1" width="3.5" height="19.068" fill="#fff"/><path d="m64,33.614c-20.156,0-36.554,16.397-36.554,36.554,0,12.261,6.074,23.122,15.364,29.757.041.035.077.075.122.106.028.02.06.026.088.043,5.943,4.182,13.177,6.647,20.979,6.647,20.156,0,36.553-16.398,36.553-36.554,0-18.755-14.905-36.554-36.553-36.554Zm21.102,11.135l-19.352,19.982v-8.538l14.391-14.855c1.758.988,3.42,2.128,4.962,3.41Zm-19.352,6.415v-14.002c3.915.205,7.653,1.094,11.094,2.551l-11.094,11.452Zm-34.804,19.004c0-17.638,13.888-32.093,31.304-33.007v32.452l-18.694,26.498c-7.672-6.058-12.61-15.432-12.61-25.944Zm33.054,33.054c-6.461,0-12.489-1.87-17.587-5.088l18.494-26.216h32.099c-.913,17.415-15.368,31.304-33.006,31.304Zm33.006-34.804h-16.82l13.105-13.537c2.142,4.088,3.46,8.673,3.715,13.537Zm-5.566-16.656l-16.124,16.656h-8.263l20.617-21.288c1.389,1.427,2.655,2.974,3.77,4.632Z" fill="#fff"/><path d="m75.182,88.445c-.27-.555-.623-1.02-1.058-1.395s-.916-.679-1.44-.912c-.526-.233-1.051-.439-1.576-.619-.526-.18-1.01-.36-1.452-.54-.443-.18-.799-.394-1.069-.642s-.405-.566-.405-.956c0-.481.184-.837.551-1.069.367-.233.866-.349,1.496-.349.555,0,1.07.132,1.543.394.472.263.934.634,1.384,1.115l2.251-2.296c-.571-.66-1.306-1.186-2.206-1.576-.593-.257-1.217-.421-1.868-.508v-2.102h-2.499v2.155c-.499.092-.966.231-1.395.422-.826.368-1.471.904-1.936,1.61-.465.705-.698,1.553-.698,2.544,0,.795.131,1.463.394,2.003.262.54.611.983,1.047,1.328.435.346.912.638,1.429.878s1.039.447,1.564.619c.525.172,1.006.356,1.441.551s.788.427,1.058.697.405.616.405,1.036c0,.51-.207.908-.619,1.192-.413.285-.98.428-1.7.428-.781,0-1.471-.169-2.071-.507-.6-.337-1.148-.806-1.643-1.407l-2.251,2.296c.766.871,1.602,1.516,2.51,1.936.719.332,1.544.528,2.465.597v2.059h2.499v-2.192c1.066-.193,1.967-.557,2.667-1.128,1.057-.863,1.587-2.052,1.587-3.568,0-.84-.135-1.538-.405-2.093Z" fill="#fff"/></svg>