<?xml version="1.0" encoding="UTF-8"?><svg id="a" xmlns="http://www.w3.org/2000/svg" viewBox="0 0 128 128"><path d="m119.186,46.375c.498.498,1.243.649,1.897.384.651-.265,1.081-.894,1.091-1.598l.273-19.877c.017-1.016-.834-1.817-1.778-1.78l-19.88.273c-.704.01-1.333.439-1.598,1.091-.265.652-.114,1.399.384,1.896l4.553,4.553-31.424,31.413-12.686-12.686c-2.902-2.901-7.626-2.901-10.529,0L7.729,91.803c-2.899,2.899-2.899,7.618,0,10.518,2.899,2.9,7.617,2.9,10.517,0l36.506-36.506,12.69,12.699c2.904,2.891,7.621,2.891,10.514-.003l36.689-36.677,4.541,4.541Zm-43.705,29.661c-1.532,1.531-4.03,1.529-5.566,0l-13.924-13.934c-.681-.681-1.789-.686-2.475,0L15.772,99.846c-1.534,1.535-4.032,1.536-5.567,0-1.535-1.535-1.535-4.033,0-5.568l41.759-41.76c1.539-1.538,4.041-1.537,5.58,0l13.924,13.924c.684.684,1.791.684,2.475,0l33.898-33.888c.328-.328.513-.773.513-1.237s-.184-.909-.513-1.237l-2.858-2.859,13.937-.188-.188,13.937-2.848-2.847c-.684-.684-1.791-.684-2.475,0l-37.927,37.914Z" fill="#fff"/><path d="m101.364,80.423c-11.592,0-21.022,9.431-21.022,21.023s9.431,21.022,21.022,21.022,21.023-9.431,21.023-21.022-9.431-21.023-21.023-21.023Zm0,38.545c-9.662,0-17.522-7.86-17.522-17.522s7.86-17.523,17.522-17.523,17.523,7.86,17.523,17.523-7.861,17.522-17.523,17.522Z" fill="#fff"/><path d="m26.576,47.454c11.592,0,21.023-9.431,21.023-21.022S38.168,5.409,26.576,5.409,5.553,14.84,5.553,26.432s9.431,21.022,21.022,21.022Zm0-38.545c9.662,0,17.523,7.86,17.523,17.522s-7.861,17.522-17.523,17.522-17.522-7.86-17.522-17.522,7.86-17.522,17.522-17.522Z" fill="#fff"/><path d="m33.621,36.47c.662.705,1.771.737,2.474.075.704-.662.737-1.771.075-2.474l-7.844-8.334v-6.886c0-.967-.784-1.75-1.75-1.75s-1.75.783-1.75,1.75v7.58c0,.445.17.875.476,1.199l8.319,8.839Z" fill="#fff"/><path d="m107.568,102.851c-.307-.63-.708-1.16-1.203-1.586s-1.04-.771-1.636-1.036c-.598-.265-1.195-.499-1.791-.704-.598-.204-1.147-.409-1.65-.614-.503-.205-.908-.448-1.215-.729s-.46-.643-.46-1.087c0-.546.209-.951.627-1.215.417-.265.984-.397,1.7-.397.631,0,1.216.15,1.753.448.536.299,1.061.72,1.572,1.267l2.558-2.609c-.649-.75-1.484-1.347-2.507-1.791-.674-.292-1.383-.478-2.123-.578v-2.389h-2.84v2.449c-.567.104-1.097.262-1.586.48-.939.418-1.671,1.027-2.2,1.829-.529.801-.793,1.764-.793,2.891,0,.904.149,1.663.448,2.276.298.614.694,1.117,1.189,1.509.494.393,1.036.725,1.624.997s1.181.507,1.777.704c.597.195,1.143.405,1.637.627s.896.486,1.203.792.46.699.46,1.177c0,.579-.235,1.032-.703,1.355-.47.324-1.113.486-1.932.486-.887,0-1.671-.192-2.353-.576-.682-.383-1.304-.916-1.867-1.599l-2.558,2.609c.87.99,1.82,1.722,2.852,2.2.817.378,1.754.6,2.801.679v2.34h2.84v-2.491c1.211-.219,2.235-.632,3.031-1.282,1.202-.981,1.803-2.331,1.803-4.055,0-.954-.153-1.748-.46-2.379Z" fill="#fff"/></svg>