<?xml version="1.0" encoding="UTF-8"?><svg id="a" xmlns="http://www.w3.org/2000/svg" viewBox="0 0 128 128"><path d="m114.45,7.2H41.55c-3.722,0-6.75,3.028-6.75,6.75v37.854H13.546c-3.722,0-6.75,3.028-6.75,6.75v46.491c0,8.658,7.023,15.702,15.67,15.746.028.001.055.008.084.008h91.9c3.722,0,6.75-3.028,6.75-6.75V13.95c0-3.722-3.028-6.75-6.75-6.75ZM22.546,117.295c-6.755,0-12.25-5.495-12.25-12.25v-46.491c0-1.792,1.458-3.25,3.25-3.25h21.25v49.741c0,6.755-5.495,12.25-12.25,12.25Zm95.154-3.246c0,1.792-1.458,3.25-3.25,3.25H32.418c3.58-2.89,5.878-7.306,5.878-12.254,0-3.237.004-90.993.004-91.095,0-1.792,1.458-3.25,3.25-3.25h72.9c1.792,0,3.25,1.458,3.25,3.25v100.1Z" fill="#fff"/><path d="m103.227,100.612h-50.455c-2.895,0-5.25,2.355-5.25,5.25s2.355,5.25,5.25,5.25h50.455c2.895,0,5.25-2.355,5.25-5.25s-2.355-5.25-5.25-5.25Zm0,7h-50.455c-.965,0-1.75-.785-1.75-1.75s.785-1.75,1.75-1.75h50.455c.965,0,1.75.785,1.75,1.75s-.785,1.75-1.75,1.75Z" fill="#fff"/><path d="m52.272,95.108h7.466c2.619,0,4.75-2.131,4.75-4.75v-32.982c0-2.619-2.131-4.75-4.75-4.75h-7.466c-2.619,0-4.75,2.131-4.75,4.75v32.982c0,2.619,2.131,4.75,4.75,4.75Zm-1.25-37.732c0-.69.561-1.25,1.25-1.25h7.466c.689,0,1.25.56,1.25,1.25v32.982c0,.689-.561,1.25-1.25,1.25h-7.466c-.689,0-1.25-.561-1.25-1.25v-32.982Z" fill="#fff"/><path d="m81.733,95.109c2.619,0,4.75-2.131,4.75-4.75v-21.273c0-2.619-2.131-4.75-4.75-4.75h-7.467c-2.619,0-4.75,2.131-4.75,4.75v21.273c0,2.619,2.131,4.75,4.75,4.75h7.467Zm-8.717-4.75v-21.273c0-.689.56-1.25,1.25-1.25h7.467c.689,0,1.25.561,1.25,1.25v21.273c0,.689-.56,1.25-1.25,1.25h-7.467c-.689,0-1.25-.561-1.25-1.25Z" fill="#fff"/><path d="m103.727,72.118h-7.466c-2.619,0-4.75,2.131-4.75,4.75v13.491c0,2.619,2.131,4.75,4.75,4.75h7.466c2.619,0,4.75-2.131,4.75-4.75v-13.491c0-2.619-2.131-4.75-4.75-4.75Zm1.25,18.241c0,.689-.56,1.25-1.25,1.25h-7.466c-.689,0-1.25-.561-1.25-1.25v-13.491c0-.689.561-1.25,1.25-1.25h7.466c.69,0,1.25.561,1.25,1.25v13.491Z" fill="#fff"/><path d="m106.727,41.979h-57.455c-.967,0-1.75.784-1.75,1.75s.783,1.75,1.75,1.75h57.455c.967,0,1.75-.784,1.75-1.75s-.783-1.75-1.75-1.75Z" fill="#fff"/><path d="m106.727,29.433h-57.455c-.967,0-1.75.784-1.75,1.75s.783,1.75,1.75,1.75h57.455c.967,0,1.75-.784,1.75-1.75s-.783-1.75-1.75-1.75Z" fill="#fff"/><path d="m106.727,16.888h-57.455c-.967,0-1.75.784-1.75,1.75s.783,1.75,1.75,1.75h57.455c.967,0,1.75-.784,1.75-1.75s-.783-1.75-1.75-1.75Z" fill="#fff"/></svg>