<?xml version="1.0" encoding="UTF-8"?><svg id="a" xmlns="http://www.w3.org/2000/svg" viewBox="0 0 128 128"><path d="m112.909,108.947h-4.52v-2.247c0-2.619-2.131-4.75-4.75-4.75h-3.37v-35.64h6.367c.967,0,1.75-.784,1.75-1.75v-7c0-.966-.783-1.75-1.75-1.75h-2.787l-6.122-9.219c-.324-.488-.872-.782-1.458-.782h-10.307c2.632-4.077,4.167-8.925,4.167-14.128,0-14.407-11.722-26.128-26.129-26.128s-26.129,11.721-26.129,26.128c0,5.203,1.535,10.052,4.167,14.128h-10.307c-.586,0-1.134.293-1.458.782l-6.122,9.219h-2.787c-.967,0-1.75.784-1.75,1.75v7c0,.966.783,1.75,1.75,1.75h6.367v35.64h-3.37c-2.619,0-4.75,2.131-4.75,4.75v2.247h-3.064c-2.619,0-4.75,2.131-4.75,4.75v7c0,.966.783,1.75,1.75,1.75h102.363c.967,0,1.75-.784,1.75-1.75v-7c0-2.619-2.131-4.75-4.75-4.75Zm-16.14-6.997h-3.5v-35.64h3.5v35.64Zm-17.18,0v-35.64h10.18v35.64h-10.18Zm-7,0v-35.64h3.5v35.64h-3.5Zm-13.68,0v-35.64h10.18v35.64h-10.18Zm-7,0v-35.64h3.5v35.64h-3.5Zm-13.68,0v-35.64h10.18v35.64h-10.18Zm57.101-52.64l4.316,6.5h-25.629c3.543-1.477,6.694-3.71,9.248-6.5h12.064Zm-31.331-40.257c12.477,0,22.629,10.151,22.629,22.628s-10.151,22.629-22.629,22.629-22.629-10.151-22.629-22.629,10.151-22.628,22.629-22.628Zm-31.331,40.257h12.064c2.555,2.79,5.705,5.023,9.248,6.5h-25.629l4.316-6.5Zm-9.556,10h81.773v3.5H23.113v-3.5Zm8.117,7h3.5v35.64h-3.5v-35.64Zm-8.12,40.39c0-.69.56-1.25,1.25-1.25h79.279c.689,0,1.25.56,1.25,1.25v2.247H23.11v-2.247Zm91.049,12.247H15.296v-5.25c0-.689.56-1.25,1.25-1.25h4.781c.012,0,.022.003.034.003.011,0,.022-.003.034-.003h85.212c.011,0,.022.003.034.003.012,0,.022-.003.034-.003h6.236c.689,0,1.25.561,1.25,1.25v5.25Z" fill="#fff"/><path d="m73.156,33.436c-.449-.923-1.037-1.698-1.76-2.321s-1.523-1.129-2.395-1.517c-.875-.387-1.749-.73-2.621-1.03-.875-.299-1.68-.599-2.416-.898-.736-.3-1.329-.656-1.778-1.068s-.674-.942-.674-1.591c0-.799.305-1.392.917-1.778.611-.387,1.441-.581,2.489-.581.924,0,1.78.219,2.566.656.785.438,1.554,1.055,2.302,1.854l3.745-3.82c-.949-1.098-2.172-1.972-3.67-2.621-.986-.427-2.025-.7-3.108-.846v-3.497h-4.157v3.585c-.831.153-1.606.384-2.321.702-1.374.612-2.447,1.504-3.221,2.678-.774,1.173-1.161,2.583-1.161,4.232,0,1.323.218,2.434.656,3.332.436.898,1.016,1.635,1.741,2.209.724.575,1.517,1.061,2.378,1.46s1.728.743,2.602,1.03c.874.286,1.673.593,2.397.917s1.311.711,1.76,1.16.674,1.024.674,1.723c0,.848-.344,1.51-1.029,1.984-.688.475-1.629.712-2.828.712-1.298,0-2.447-.281-3.445-.843-.998-.561-1.909-1.341-2.733-2.34l-3.745,3.82c1.274,1.449,2.665,2.521,4.175,3.221,1.196.553,2.568.878,4.101.994v3.425h4.157v-3.647c1.773-.321,3.271-.926,4.437-1.877,1.759-1.436,2.639-3.413,2.639-5.935,0-1.397-.225-2.558-.674-3.482Z" fill="#fff"/></svg>