<?xml version="1.0" encoding="UTF-8"?><svg id="a" xmlns="http://www.w3.org/2000/svg" viewBox="0 0 128 128"><path d="m65.722,79.712c-1.49,0-2.712.488-3.665,1.466-.954.977-1.431,2.211-1.431,3.7,0,1.443.477,2.665,1.431,3.665.953,1,2.175,1.501,3.665,1.501s2.711-.501,3.665-1.501c.953-1,1.431-2.222,1.431-3.665,0-1.489-.478-2.723-1.431-3.7-.954-.978-2.176-1.466-3.665-1.466Z" fill="#fff"/><path d="m77.938,44.982c-1.257-2.07-3.014-3.688-5.271-4.852-2.258-1.163-4.852-1.745-7.784-1.745-3.397,0-6.411.803-9.04,2.408-2.199,1.343-3.966,3.182-5.302,5.517-.457.798-.268,1.814.441,2.399l2.627,2.167c.867.715,2.177.523,2.773-.429.769-1.226,1.683-2.21,2.742-2.953,1.559-1.093,3.339-1.641,5.34-1.641,1.536,0,2.862.279,3.979.838,1.117.558,1.978,1.35,2.583,2.374.604,1.024.907,2.233.907,3.63s-.314,2.618-.942,3.665c-.628,1.047-1.513,1.862-2.652,2.443-1.142.583-2.479.873-4.015.873h0c-1.041,0-1.885.844-1.885,1.885v9.704c0,1.041.844,1.885,1.885,1.885h2.988c.991,0,1.812-.767,1.88-1.755l.315-4.565c.049-.711.482-1.355,1.143-1.621,1.036-.417,2.003-.907,2.889-1.484,2.001-1.302,3.549-2.932,4.643-4.886,1.093-1.955,1.641-4.188,1.641-6.702,0-2.699-.629-5.084-1.885-7.155Z" fill="#fff"/><path d="m64.426,10.258c-29.611,0-53.702,24.091-53.702,53.702s24.091,53.702,53.702,53.702,53.702-24.09,53.702-53.702S94.037,10.258,64.426,10.258Zm0,103.654c-27.544,0-49.952-22.408-49.952-49.952S36.882,14.008,64.426,14.008s49.952,22.408,49.952,49.952-22.408,49.952-49.952,49.952Z" fill="#fff"/></svg>