<?xml version="1.0" encoding="UTF-8"?><svg id="a" xmlns="http://www.w3.org/2000/svg" viewBox="0 0 128 128"><path d="m16.081,114.129c-1.889-1.992-2.924-4.6-2.914-7.351V21.215c-.009-2.747,1.026-5.355,2.917-7.348,1.795-1.893,4.319-2.983,6.921-2.993h22.427c.552,0,1-.448,1-1v-1.75c0-.552-.448-1-1-1h-22.434c-3.628.013-7.14,1.53-9.635,4.162-2.557,2.695-3.959,6.225-3.946,9.935v85.55c-.014,3.714,1.387,7.244,3.943,9.938,2.496,2.634,6.009,4.152,9.645,4.165h22.427c.552,0,1-.448,1-1v-1.75c0-.552-.448-1-1-1h-22.42c-2.609-.009-5.135-1.101-6.931-2.996Z" fill="#fff"/><path d="m88.056,32.831l-1.263,1.211c-.399.382-.412,1.015-.03,1.414l24.746,25.825c.305.318.079.846-.361.846h-63.721c-.552,0-1,.448-1,1v1.75c0,.552.448,1,1,1h63.711c.44,0,.666.528.361.846l-24.736,25.815c-.382.399-.369,1.032.03,1.414l1.263,1.211c.399.382,1.032.369,1.414-.03l29.171-30.444c.371-.387.371-.997,0-1.384l-29.171-30.443c-.382-.399-1.015-.412-1.414-.03Z" fill="#fff"/></svg>