<svg version="1.2" xmlns="http://www.w3.org/2000/svg" viewBox="0 0 88 4344" width="88" height="4344"><defs><clipPath clipPathUnits="userSpaceOnUse" id="cp1"><path d="m-436 0h1920v4344h-1920z"/></clipPath></defs><style>.a{fill:#fff}.b{fill:none;stroke:#7246fd;stroke-width:2}</style><g clip-path="url(#cp1)"><path fill-rule="evenodd" class="a" d="m87.4 1571c0 2-1.6 3.7-3.6 3.7h-74.7c-2 0-3.7-1.7-3.7-3.7v-74.7c0-2 1.7-3.6 3.7-3.6 2.1 0 3.7 1.6 3.7 3.6v69.8c0 0.6 0.6 1.2 1.2 1.2h3.4v-13.3c0-1.8 1.5-3.3 3.3-3.3h4.6c1.8 0 3.3 1.5 3.3 3.3v13.3h6.2v-19.6c0-1.8 1.5-3.3 3.3-3.3h4.6c1.8 0 3.3 1.5 3.3 3.3v19.6h6.2v-26.9c0-1.9 1.5-3.4 3.3-3.4h4.5c1.9 0 3.4 1.5 3.4 3.4v26.9h6.2v-35.3c0-1.8 1.5-3.3 3.3-3.3h4.5c1.9 0 3.4 1.5 3.4 3.3v35.3h3c2 0 3.6 1.6 3.6 3.7zm-2.4 0c0-0.7-0.6-1.3-1.2-1.3h-69.8c-2 0-3.6-1.6-3.6-3.6v-69.8c0-0.6-0.6-1.2-1.3-1.2-0.7 0-1.2 0.6-1.2 1.2v74.7c0 0.7 0.5 1.2 1.2 1.2h74.7c0.6 0 1.2-0.5 1.2-1.2zm-30.4-3.7h6.3v-26.9c0-0.5-0.4-0.9-0.9-0.9h-4.5c-0.5 0-0.9 0.4-0.9 0.9zm-17.3 0h6.2v-19.6c0-0.5-0.4-0.9-0.8-0.9h-4.6c-0.5 0-0.8 0.4-0.8 0.9zm-17.4 0h6.2v-13.3c0-0.5-0.3-0.9-0.8-0.9h-4.6c-0.4 0-0.8 0.4-0.8 0.9zm52.1 0h6.3v-35.3c0-0.5-0.4-0.8-0.9-0.8h-4.5c-0.5 0-0.9 0.3-0.9 0.8z"/><path fill-rule="evenodd" class="a" d="m18.8 1539c0-2.5 2-4.6 4.5-4.6q0.4 0 0.7 0.1l3-6.4c-1-0.9-1.6-2.1-1.6-3.5 0-2.5 2-4.5 4.5-4.5 2.5 0 4.6 2 4.6 4.5q-0.1 0.8-0.3 1.5l3.5 2.4c0.8-0.6 1.8-1 2.9-1q0.3 0 0.5 0l3.4-8.4c-1-0.9-1.7-2.2-1.7-3.6 0-2.5 2-4.5 4.5-4.5 2.5 0 4.5 2 4.5 4.5 0 0.8-0.2 1.5-0.5 2.2l4.4 4.3c0.6-0.4 1.4-0.6 2.2-0.6q1 0 1.9 0.4l11.7-14c-0.5-0.8-0.8-1.6-0.8-2.6 0-2.5 2-4.5 4.5-4.5 2.5 0 4.6 2 4.6 4.5 0 2.5-2.1 4.5-4.6 4.5q-1 0-1.8-0.4l-11.7 14c0.5 0.8 0.8 1.6 0.8 2.6 0 2.5-2.1 4.5-4.6 4.5-2.5 0-4.5-2-4.5-4.5 0-0.8 0.2-1.5 0.6-2.2l-4.4-4.3c-0.7 0.4-1.5 0.6-2.3 0.6q-0.3 0-0.5 0l-3.4 8.4c1.1 0.8 1.8 2.1 1.8 3.6 0 2.5-2.1 4.5-4.6 4.5-2.5 0-4.5-2-4.5-4.5q0-0.8 0.3-1.5l-3.6-2.4c-0.8 0.7-1.8 1-2.9 1q-0.3 0-0.7 0l-2.9 6.4c0.9 0.9 1.6 2.1 1.6 3.5 0 2.5-2.1 4.5-4.6 4.5-2.5 0-4.5-2-4.5-4.5zm58.5-33.8c0-1.1-0.9-2.1-2.1-2.1-1.1 0-2 1-2 2.1 0 1.2 0.9 2.1 2 2.1 1.2 0 2.1-0.9 2.1-2.1zm-17.3 20.7c0-1.2-0.9-2.1-2.1-2.1-1.1 0-2 0.9-2 2.1 0 1.1 0.9 2.1 2 2.1 1.2 0 2.1-1 2.1-2.1zm-14.8-10.4c0 1.1 0.9 2.1 2.1 2.1 0.6 0 1.1-0.3 1.5-0.6q0 0 0-0.1 0 0 0 0c0.3-0.3 0.6-0.8 0.6-1.4 0-1.2-1-2.1-2.1-2.1-1.2 0-2.1 0.9-2.1 2.1zm-6.3 15.3q0 0 0 0 0 0 0 0-0.3 0.5-0.3 1.2c0 1.1 0.9 2.1 2 2.1 1.2 0 2.1-1 2.1-2.1 0-1.2-0.9-2.1-2.1-2.1-0.7 0-1.3 0.4-1.7 0.9zm-11-6.2c0 1.2 0.9 2.1 2 2.1 0.7 0 1.4-0.3 1.7-0.9q0 0 0 0 0 0 0.1 0 0.3-0.5 0.3-1.2c0-1.1-0.9-2.1-2.1-2.1-1.1 0-2 1-2 2.1zm-2.5 14.4c0-1.2-0.9-2.1-2.1-2.1-1.1 0-2 0.9-2 2.1 0 1.1 0.9 2 2 2 1.2 0 2.1-0.9 2.1-2z"/><path class="b" d="m46-8v6931"/><path fill-rule="evenodd" class="a" d="m82.6 2055.4v71.8c0 2.6-2.2 4.8-4.8 4.8h-65.9q0 0-0.1 0c-6.2 0-11.2-5.1-11.2-11.3v-33.3c0-2.7 2.2-4.9 4.8-4.9h15.3v-27.1c0-2.7 2.1-4.8 4.8-4.8h52.3c2.6 0 4.8 2.1 4.8 4.8zm-61.9 65.3v-35.6h-15.3c-1.2 0-2.3 1-2.3 2.3v33.3c0 4.8 3.9 8.8 8.8 8.8 4.8 0 8.8-4 8.8-8.8zm59.4-65.3c0-1.3-1.1-2.3-2.3-2.3h-52.3c-1.3 0-2.3 1-2.3 2.3 0 0.1 0 63 0 65.3 0 3.6-1.7 6.7-4.2 8.8h58.8c1.2 0 2.3-1.1 2.3-2.3 0 0 0-71.8 0-71.8z"/><path fill-rule="evenodd" class="a" d="m74.8 2122.8c0 1.8-1.5 3.3-3.2 3.3h-31c-1.8 0-3.2-1.5-3.2-3.3 0-1.7 1.4-3.2 3.2-3.2h31c1.7 0 3.2 1.5 3.2 3.2zm-2.2 0c0-0.6-0.4-1-1-1h-31c-0.6 0-1.1 0.4-1.1 1 0 0.6 0.5 1.1 1.1 1.1h31c0.6 0 1-0.5 1-1.1z"/><path fill-rule="evenodd" class="a" d="m30.5 2088.9c0-1.6 1.4-3 3-3h4.4c1.7 0 3 1.4 3 3v20.1c0 1.7-1.3 3-3 3h-4.4c-1.6 0-3-1.3-3-3zm2.2 20.2c0 0.4 0.3 0.7 0.7 0.7h4.6c0.4 0 0.8-0.3 0.8-0.7v-20.3c0-0.4-0.4-0.8-0.8-0.8h-4.6c-0.4 0-0.7 0.4-0.7 0.8z"/><path fill-rule="evenodd" class="a" d="m46.7 2096.7c0-1.6 1.3-3 3-3h4.4c1.7 0 3 1.4 3 3v12.9c0 1.7-1.3 3-3 3h-4.4c-1.7 0-3-1.3-3-3zm2.9 13.7h4.6c0.4 0 0.7-0.3 0.7-0.7v-13.1c0-0.4-0.3-0.8-0.7-0.8h-4.6c-0.4 0-0.8 0.4-0.8 0.8v13.1c0 0.4 0.4 0.7 0.8 0.7z"/><path fill-rule="evenodd" class="a" d="m64.4 2101.8c0-1.7 1.3-3 3-3h4.4c1.7 0 3 1.3 3 3v8.1c0 1.7-1.3 3-3 3h-4.4c-1.7 0-3-1.3-3-3zm8.2-0.1c0-0.4-0.3-0.7-0.7-0.7h-4.6c-0.4 0-0.8 0.3-0.8 0.7v8.3c0 0.4 0.4 0.8 0.8 0.8h4.6c0.4 0 0.7-0.4 0.7-0.8z"/><path class="a" d="m73.7 2075.6h-35.2c-0.6 0-1.1 0.5-1.1 1.1 0 0.6 0.5 1.1 1.1 1.1h35.2c0.6 0 1.1-0.5 1.1-1.1 0-0.6-0.5-1.1-1.1-1.1z"/><path class="a" d="m73.7 2066.6h-35.2c-0.6 0-1.1 0.5-1.1 1.1 0 0.5 0.5 1 1.1 1h35.2c0.6 0 1.1-0.5 1.1-1 0-0.6-0.5-1.1-1.1-1.1z"/><path class="a" d="m73.7 2056.5h-35.2c-0.6 0-1.1 0.5-1.1 1.1 0 0.6 0.5 1.1 1.1 1.1h35.2c0.6 0 1.1-0.5 1.1-1.1 0-0.6-0.5-1.1-1.1-1.1z"/></g></svg>