<?xml version="1.0" encoding="UTF-8"?>
<svg id="a" data-name="OUTLINE" xmlns="http://www.w3.org/2000/svg" width="128" height="128" viewBox="0 0 128 128">
  <path d="m117.197,111.947h-4.265v-50.311c0-2.619-2.131-4.75-4.75-4.75h-6.451c-2.619,0-4.75,2.131-4.75,4.75v50.311h-8.838v-38.372c0-2.619-2.131-4.75-4.75-4.75h-6.451c-2.619,0-4.75,2.131-4.75,4.75v38.372h-8.837v-27.887c0-2.619-2.131-4.75-4.75-4.75h-6.451c-2.619,0-4.75,2.131-4.75,4.75v27.887h-8.838v-18.947c0-2.619-2.131-4.75-4.75-4.75h-6.451c-2.619,0-4.75,2.131-4.75,4.75v18.947h-4.811c-.965,0-1.75-.785-1.75-1.75V10.803c0-2.895-2.355-5.25-5.25-5.25s-5.25,2.355-5.25,5.25v106.394c0,2.895,2.355,5.25,5.25,5.25h106.394c2.895,0,5.25-2.355,5.25-5.25s-2.355-5.25-5.25-5.25Zm-16.716-50.311c0-.689.561-1.25,1.25-1.25h6.451c.689,0,1.25.561,1.25,1.25v50.311h-8.951v-50.311Zm-24.789,11.939c0-.689.561-1.25,1.25-1.25h6.451c.689,0,1.25.561,1.25,1.25v38.372h-8.951v-38.372Zm-24.789,10.485c0-.689.561-1.25,1.25-1.25h6.451c.689,0,1.25.561,1.25,1.25v27.887h-8.951v-27.887Zm-24.789,8.94c0-.69.56-1.25,1.25-1.25h6.451c.689,0,1.25.56,1.25,1.25v18.947h-8.951v-18.947Zm91.083,25.947H10.803c-.965,0-1.75-.785-1.75-1.75V10.803c0-.965.785-1.75,1.75-1.75s1.75.785,1.75,1.75v99.394c0,2.895,2.355,5.25,5.25,5.25h99.394c.965,0,1.75.785,1.75,1.75s-.785,1.75-1.75,1.75Z" fill="#fff"/>
  <path d="m30.589,78.386c3.571,0,6.477-2.906,6.477-6.477,0-1.971-.888-3.737-2.282-4.926l4.248-9.229c.33.052.666.087,1.011.087,1.574,0,3.018-.566,4.142-1.503l5.069,3.48c-.225.657-.353,1.359-.353,2.092,0,3.571,2.906,6.477,6.477,6.477s6.478-2.906,6.478-6.477c0-2.083-.992-3.934-2.524-5.12l4.878-12.081c.234.026.471.041.712.041,1.178,0,2.28-.321,3.233-.873l6.332,6.197c-.507.923-.797,1.982-.797,3.108,0,3.572,2.906,6.478,6.477,6.478s6.477-2.906,6.477-6.478c0-1.358-.422-2.618-1.139-3.66l16.799-20.072c.81.366,1.706.574,2.652.574,3.572,0,6.477-2.906,6.477-6.477s-2.906-6.477-6.477-6.477-6.477,2.906-6.477,6.477c0,1.358.422,2.618,1.139,3.661l-16.799,20.072c-.811-.366-1.707-.574-2.652-.574-1.177,0-2.278.32-3.23.871l-6.333-6.199c.506-.922.795-1.98.795-3.104,0-3.572-2.906-6.477-6.477-6.477s-6.478,2.906-6.478,6.477c0,2.082.992,3.932,2.523,5.118l-4.878,12.082c-.234-.026-.47-.041-.711-.041-1.574,0-3.017.565-4.141,1.502l-5.069-3.48c.225-.657.353-1.358.353-2.09,0-3.572-2.906-6.478-6.477-6.478s-6.477,2.906-6.477,6.478c0,1.973.89,3.74,2.286,4.929l-4.247,9.227c-.332-.053-.67-.088-1.016-.088-3.571,0-6.477,2.906-6.477,6.478s2.906,6.477,6.477,6.477ZM104.956,20.568c1.642,0,2.977,1.335,2.977,2.977s-1.336,2.977-2.977,2.977-2.977-1.336-2.977-2.977,1.335-2.977,2.977-2.977Zm-21.812,32.613c0,1.642-1.336,2.978-2.977,2.978s-2.977-1.336-2.977-2.978,1.335-2.977,2.977-2.977,2.977,1.335,2.977,2.977Zm-18.222-17.886c1.642,0,2.977,1.336,2.977,2.977,0,.802-.322,1.529-.84,2.065-.003.003-.007.005-.01.008-.011.012-.018.025-.029.037-.539.535-1.28.868-2.097.868-1.642,0-2.978-1.335-2.978-2.977s1.336-2.977,2.978-2.977Zm-9.544,23.636c1.642,0,2.978,1.336,2.978,2.978s-1.336,2.977-2.978,2.977-2.977-1.335-2.977-2.977c0-.616.188-1.188.509-1.663.007-.009.016-.016.023-.026.001-.002.002-.004.003-.006.538-.773,1.431-1.283,2.442-1.283Zm-15.334-10.545c1.642,0,2.977,1.336,2.977,2.978,0,.608-.185,1.173-.499,1.645-.011.015-.024.026-.034.041-.005.007-.007.014-.012.021-.539.766-1.426,1.27-2.432,1.27-1.642,0-2.977-1.335-2.977-2.977s1.336-2.978,2.977-2.978Zm-9.454,20.545c1.642,0,2.977,1.336,2.977,2.978s-1.335,2.977-2.977,2.977-2.977-1.335-2.977-2.977,1.335-2.978,2.977-2.978Z" fill="#fff"/>
</svg>