<svg version="1.2" xmlns="http://www.w3.org/2000/svg" viewBox="0 0 44 44" width="44" height="44"><defs><clipPath clipPathUnits="userSpaceOnUse" id="cp1"><path d="m-104-166h422v1152h-422z"/></clipPath></defs><style>.a{fill:#fff}</style><g clip-path="url(#cp1)"><path fill-rule="evenodd" class="a" d="m31.1 2.1c2.2 0.1 3.7 0.5 5 1 1.4 0.5 2.6 1.2 3.7 2.4 1.2 1.1 1.9 2.3 2.4 3.6 0.5 1.3 0.8 2.8 0.9 5 0.1 2.2 0.2 2.9 0.2 8.5 0 5.6-0.1 6.3-0.2 8.5-0.1 2.2-0.4 3.7-0.9 5-0.5 1.4-1.2 2.6-2.4 3.7-1.1 1.2-2.3 1.9-3.7 2.4-1.3 0.5-2.8 0.8-5 0.9-2.2 0.1-2.9 0.2-8.5 0.2-5.6 0-6.3-0.1-8.5-0.2-2.2-0.1-3.7-0.4-5-0.9-1.3-0.5-2.5-1.2-3.6-2.4-1.2-1.1-1.9-2.3-2.4-3.7-0.5-1.3-0.9-2.8-1-5-0.1-2.2-0.1-2.9-0.1-8.5 0-5.6 0-6.3 0.1-8.5 0.1-2.2 0.5-3.7 1-5 0.5-1.3 1.2-2.5 2.4-3.6 1.1-1.2 2.3-1.9 3.6-2.4 1.3-0.5 2.8-0.9 5-1 2.2-0.1 2.9-0.1 8.5-0.1 5.6 0 6.3 0 8.5 0.1zm-16.8 3.7c-2 0.1-3.1 0.5-3.8 0.7-1 0.4-1.7 0.9-2.4 1.6-0.7 0.7-1.2 1.4-1.6 2.4-0.2 0.7-0.6 1.8-0.7 3.8-0.1 2.2-0.1 2.8-0.1 8.3 0 5.5 0 6.2 0.1 8.4 0.1 2 0.5 3.1 0.7 3.8 0.4 1 0.9 1.7 1.6 2.4 0.7 0.7 1.4 1.1 2.4 1.5 0.7 0.3 1.8 0.6 3.8 0.7 2.2 0.1 2.8 0.1 8.3 0.1 5.5 0 6.2 0 8.4-0.1 2-0.1 3.1-0.4 3.8-0.7 1-0.4 1.7-0.8 2.4-1.5 0.7-0.7 1.1-1.4 1.5-2.4 0.3-0.7 0.6-1.8 0.7-3.8 0.1-2.2 0.1-2.9 0.1-8.4 0-5.5 0-6.1-0.1-8.3-0.1-2-0.4-3.1-0.7-3.8-0.4-1-0.8-1.7-1.5-2.4-0.7-0.7-1.4-1.2-2.4-1.6-0.7-0.2-1.8-0.6-3.8-0.7-2.2-0.1-2.9-0.1-8.4-0.1-5.5 0-6.1 0-8.3 0.1z"/><path fill-rule="evenodd" class="a" d="m21.2 33.8c-5.8 0-10.6-4.7-10.6-10.6 0-5.8 4.8-10.6 10.6-10.6 5.9 0 10.6 4.8 10.6 10.6 0 5.9-4.7 10.6-10.6 10.6zm6.9-10.6c0-3.8-3.1-6.9-6.9-6.9-3.8 0-6.9 3.1-6.9 6.9 0 3.8 3.1 6.9 6.9 6.9 3.8 0 6.9-3.1 6.9-6.9z"/><path class="a" d="m32.5 15c-1.4 0-2.5-1.2-2.5-2.5 0-1.4 1.1-2.5 2.5-2.5 1.3 0 2.5 1.1 2.5 2.5 0 1.3-1.2 2.5-2.5 2.5z"/></g></svg>