<svg version="1.2" xmlns="http://www.w3.org/2000/svg" viewBox="0 0 14 22" width="14" height="22"><defs><clipPath clipPathUnits="userSpaceOnUse" id="cp1"><path d="m-1570-2800h1920v4344h-1920z"/></clipPath></defs><style>.a{fill:#026773}</style><g clip-path="url(#cp1)"><path class="a" d="m2.5 1.6c-0.4 0.4-0.6 1-0.6 1.6 0 0.5 0.2 1.1 0.6 1.5l6.3 6.3-6.3 6.3c-0.8 0.8-0.8 2.2 0 3 0.9 0.9 2.2 0.9 3.1 0l7.8-7.8c0.4-0.4 0.6-0.9 0.6-1.5 0-0.6-0.2-1.1-0.6-1.5l-7.8-7.9c-0.5-0.4-1-0.6-1.6-0.6-0.5 0-1.1 0.2-1.5 0.6z"/></g></svg>