<svg version="1.2" xmlns="http://www.w3.org/2000/svg" viewBox="0 0 634 706" width="634" height="706"><defs><clipPath clipPathUnits="userSpaceOnUse" id="cp1"><path d="m-314-1152h1920v4344h-1920z"/></clipPath></defs><style>.a{fill:#012e40}</style><g clip-path="url(#cp1)"><path class="a" d="m617.4 390.7c17.2 46.8 21.4 90 7.4 129.1-13.2 39.1-44.6 74.2-82 103.2-37.5 29-80.9 51.9-119.8 66.1-39.7 14.1-74.8 19.5-115.2 13.9-75.4-10.8-166.4-68.8-227.9-143.6-62.2-75.4-94.8-167.6-69.3-259.4 20.6-93 113.6-163.8 202.1-216.6 90.4-51.8 176.2-85.7 228.2-82.2 56.4 3.7 74.7 48.9 88.1 124 7.8 37.1 17.3 80.5 33.6 125.9 15.6 45.5 37.9 93 54.8 139.6z"/></g></svg>